<svg width="500" height="500" viewBox="0 0 500 500" fill="none" xmlns="http://www.w3.org/2000/svg">
<path d="M278.44 462.06C261.2 453.9 254.33 434.5 251.9 416.43C251.49 413.43 250.63 410.31 251.61 407.43C252.59 404.55 255.61 402.2 258.51 403.01C260.92 403.68 262.33 406.1 263.94 408.01C266.081 410.587 268.911 412.501 272.1 413.53C274.18 414.2 276.65 414.41 278.36 413.05C280.7 411.18 280.36 407.56 279.88 404.58C278.9 399.053 277.94 393.527 277 388C276.322 385.051 276.123 382.012 276.41 379C276.85 376 278.46 373 281.16 371.76C283.86 370.52 287.65 371.53 288.74 374.35C289.061 375.563 289.302 376.795 289.46 378.04C289.75 379.27 290.56 380.54 291.79 380.69C293.02 380.84 294.09 379.79 294.84 378.76C297.4 375.23 298.84 371 300.14 366.81C301.44 362.62 302.66 358.35 304.9 354.59C307.14 350.83 310.56 347.59 314.79 346.59C319.02 345.59 324.02 347.49 325.79 351.5C327.56 355.51 325.85 360.2 323.79 364.06C320.662 369.776 316.724 375.01 312.1 379.6C311.178 380.335 310.513 381.343 310.2 382.48C309.89 384.58 312.11 386.24 314.2 386.56C316.54 386.92 318.92 386.28 321.29 386.16C323.66 386.04 326.35 386.64 327.61 388.69C329.34 391.53 327.33 395.16 325.18 397.69C320.862 402.73 315.71 406.992 309.95 410.29C307.89 411.46 305.7 412.56 304.19 414.4C302.68 416.24 302.07 419.1 303.49 421.02C304.91 422.94 307.78 423.15 310 422.33C312.22 421.51 314.07 419.92 316.12 418.73C319.96 416.49 325.3 415.87 328.53 418.97C329.537 420.054 330.279 421.357 330.698 422.776C331.116 424.196 331.199 425.693 330.94 427.15C330.408 430.052 329.296 432.818 327.67 435.28C322.491 444.182 315.045 451.553 306.09 456.64C297.14 461.54 288.48 463.93 278.45 462.07" fill="#F5F5F5"/>
<path d="M281.17 450C282.496 439.708 284.413 429.502 286.91 419.43L288.83 411.5C289.46 408.89 290.09 406.31 290.83 403.83C292.325 399.07 294.081 394.397 296.09 389.83C297.98 385.45 299.93 381.35 301.78 377.54C303.63 373.73 305.44 370.21 307.22 367.08C309.999 362.115 313.169 357.38 316.7 352.92C317.95 351.34 318.96 350.15 319.65 349.35C319.98 348.97 320.25 348.67 320.44 348.44C320.63 348.21 320.72 348.14 320.73 348.15C320.658 348.265 320.577 348.376 320.49 348.48L319.73 349.42C319.07 350.24 318.09 351.42 316.87 353.05C313.416 357.554 310.304 362.311 307.56 367.28C305.81 370.42 304.03 373.94 302.19 377.75C300.35 381.56 298.43 385.66 296.56 390.04C294.569 394.607 292.833 399.281 291.36 404.04C290.59 406.51 289.97 409.04 289.36 411.68L287.44 419.62C284.948 429.671 283.022 439.853 281.67 450.12" fill="#E0E0E0"/>
<path d="M291 403.79C290.783 403.401 290.612 402.988 290.49 402.56C290.19 401.77 289.8 400.56 289.34 399.15C288.42 396.25 287.28 392.2 286.04 387.74C284.8 383.28 283.61 379.25 282.64 376.38C282.16 374.94 281.76 373.77 281.48 372.98C281.312 372.569 281.181 372.144 281.09 371.71C281.331 372.083 281.529 372.482 281.68 372.9C282.03 373.67 282.48 374.82 283.01 376.24C284.08 379.1 285.33 383.11 286.58 387.59C287.83 392.07 288.88 395.99 289.72 399.03C290.11 400.41 290.43 401.57 290.72 402.5C290.851 402.921 290.945 403.353 291 403.79Z" fill="#E0E0E0"/>
<path d="M328.15 390.13C327.667 390.332 327.164 390.482 326.65 390.58C325.65 390.83 324.28 391.19 322.56 391.69C319.11 392.69 314.4 394.17 309.27 396.07C304.14 397.97 299.57 399.9 296.27 401.38C294.63 402.11 293.32 402.74 292.41 403.17C291.953 403.419 291.474 403.626 290.98 403.79C291.394 403.471 291.839 403.196 292.31 402.97C293.19 402.48 294.48 401.8 296.1 400.97C299.33 399.39 303.89 397.4 309.03 395.49C313.417 393.849 317.886 392.437 322.42 391.26C324.16 390.8 325.58 390.5 326.57 390.31C327.09 390.201 327.619 390.141 328.15 390.13Z" fill="#E0E0E0"/>
<path d="M281.52 449.23C281.392 449.099 281.278 448.955 281.18 448.8L280.29 447.53C279.52 446.41 278.45 444.78 277.16 442.74C274.56 438.66 271.16 432.91 267.49 426.51C263.82 420.11 260.49 414.34 257.96 410.22L254.96 405.33L254.16 404C254.054 403.853 253.97 403.691 253.91 403.52C253.91 403.52 254.04 403.65 254.25 403.94C254.46 404.23 254.79 404.7 255.14 405.22C255.91 406.33 256.98 407.96 258.28 410.01C260.87 414.09 264.28 419.83 267.95 426.23C271.62 432.63 274.95 438.4 277.47 442.53L280.47 447.41C280.79 447.94 281.06 448.41 281.27 448.74C281.377 448.89 281.462 449.055 281.52 449.23Z" fill="#E0E0E0"/>
<path d="M329.7 424.18C329.559 424.303 329.401 424.404 329.23 424.48L327.84 425.22L322.68 427.91C318.32 430.19 312.34 433.4 305.74 436.91C299.14 440.42 293.13 443.63 288.74 445.81C286.54 446.9 284.74 447.81 283.5 448.34L282 449C281.835 449.087 281.661 449.154 281.48 449.2C281.623 449.08 281.781 448.979 281.95 448.9L283.35 448.16L288.51 445.46C292.86 443.19 298.84 439.98 305.44 436.46C312.04 432.94 318.06 429.75 322.44 427.57C324.64 426.48 326.44 425.57 327.68 425.04L329.12 424.38C329.302 424.284 329.498 424.216 329.7 424.18Z" fill="#E0E0E0"/>
<path d="M153.4 247.41C153.4 247.41 141.52 249.06 148.19 275.08C154.86 301.1 160.52 314.52 160.52 314.52C160.52 314.52 161.41 320.41 156.66 320.23C151.91 320.05 142.22 316.23 138.93 321.32C135.53 326.64 138.51 333.04 145.93 339.75C153.35 346.46 169.17 361.75 170.59 363.14C172.01 364.53 173.05 367.39 169.79 367.78C166.53 368.17 143.41 365.46 142.79 376.51C142.17 387.56 166 402.84 168.57 404.56C171.14 406.28 171.57 407.62 170.97 409.12C170.37 410.62 162.71 408.97 156.1 408.46C149.49 407.95 141.73 408.54 141.9 414.94C142.07 421.34 154.59 437.54 191.09 449.58L208.38 454.05L221.15 441.47C246.85 412.88 249.66 392.61 246.63 386.97C243.6 381.33 236.63 384.68 231.09 388.4C225.55 392.12 219.75 397.4 218.51 396.4C217.27 395.4 216.95 394.02 218.33 391.25C219.71 388.48 232.8 363.38 226.76 354.1C220.72 344.82 202 358.64 199 359.91C196 361.18 195.46 358.16 196 356.28C196.54 354.4 202.64 333.28 205.78 323.73C208.92 314.18 208.32 307.16 202.72 304.24C197.32 301.43 190.83 309.59 186.79 312.11C182.75 314.63 180.61 309.11 180.61 309.11C180.61 309.11 178.85 294.66 171.71 268.76C164.57 242.86 153.18 247.5 153.18 247.5" fill="#EBEBEB"/>
<path d="M208.37 458.35C203.2 439.35 194.57 405.35 187.02 376.16C179.47 346.97 172.61 320.65 167.53 301.59C164.99 292.07 162.93 284.37 161.53 279.02C160.83 276.37 160.28 274.3 159.9 272.88L159.48 271.28C159.39 270.92 159.36 270.73 159.36 270.73C159.36 270.73 159.43 270.9 159.54 271.26C159.65 271.62 159.8 272.17 160 272.85C160.41 274.27 161 276.32 161.74 278.96C163.24 284.27 165.36 291.96 167.94 301.48C173.11 320.48 180.04 346.89 187.59 376.02C195.14 405.15 203.7 439.18 208.78 458.24" fill="#E0E0E0"/>
<path d="M152.27 327.26C152.669 327.425 153.051 327.629 153.41 327.87C154.12 328.29 155.14 328.93 156.41 329.73C158.9 331.34 162.29 333.65 165.98 336.26L175.4 342.98L178.27 344.98C178.632 345.205 178.967 345.47 179.27 345.77C178.867 345.607 178.481 345.403 178.12 345.16C177.41 344.74 176.39 344.1 175.12 343.29C172.65 341.66 169.29 339.29 165.6 336.69L156.13 330.04L153.25 328.04C152.896 327.816 152.568 327.554 152.27 327.26Z" fill="#E0E0E0"/>
<path d="M180.72 344.94C180.59 344.86 185.04 337.67 190.65 328.88C196.26 320.09 200.93 313.03 201.06 313.11C201.19 313.19 196.74 320.39 191.12 329.18C185.5 337.97 180.85 345 180.72 344.94Z" fill="#E0E0E0"/>
<path d="M190.3 390.22C190.577 389.875 190.896 389.566 191.25 389.3L193.94 386.94C196.21 384.94 199.34 382.18 202.68 379C206.02 375.82 208.96 372.85 211.06 370.68C212.06 369.68 212.88 368.79 213.55 368.11C213.853 367.775 214.188 367.47 214.55 367.2C214.329 367.582 214.06 367.935 213.75 368.25C213.21 368.9 212.4 369.82 211.38 370.94C209.38 373.19 206.46 376.22 203.1 379.4C199.74 382.58 196.58 385.32 194.24 387.24C193.06 388.24 192.1 388.96 191.42 389.47C191.075 389.761 190.7 390.012 190.3 390.22Z" fill="#E0E0E0"/>
<path d="M161.05 379.89C161.454 379.938 161.85 380.036 162.23 380.18L165.4 381.18C168.06 382.03 171.73 383.24 175.77 384.6C179.81 385.96 183.46 387.24 186.09 388.19L189.2 389.33C189.587 389.451 189.96 389.615 190.31 389.82C189.906 389.779 189.509 389.685 189.13 389.54L185.96 388.54C183.3 387.69 179.63 386.48 175.59 385.11C171.55 383.74 167.9 382.47 165.27 381.53L162.16 380.38C161.77 380.267 161.396 380.102 161.05 379.89Z" fill="#E0E0E0"/>
<path d="M164.43 420.94C164.945 421.017 165.45 421.144 165.94 421.32L170 422.56C173.42 423.63 178.13 425.14 183.33 426.85C188.53 428.56 193.22 430.12 196.61 431.29L200.61 432.69C201.108 432.849 201.592 433.047 202.06 433.28C201.542 433.204 201.033 433.077 200.54 432.9L196.48 431.66C193.06 430.59 188.35 429.08 183.15 427.37C177.95 425.66 173.26 424.09 169.88 422.93L165.88 421.52C165.38 421.371 164.895 421.177 164.43 420.94Z" fill="#E0E0E0"/>
<path d="M201.24 432.73C201.592 432.298 201.984 431.899 202.41 431.54L205.72 428.43C208.51 425.8 212.35 422.15 216.48 418C220.61 413.85 224.26 410 226.88 407.2L229.98 403.88C230.345 403.456 230.743 403.061 231.17 402.7C230.879 403.17 230.544 403.612 230.17 404.02C229.49 404.85 228.47 406.02 227.17 407.46C224.62 410.34 221.02 414.24 216.87 418.39C212.72 422.54 208.87 426.16 205.99 428.72C204.55 429.99 203.38 431.02 202.55 431.72C202.142 432.092 201.704 432.43 201.24 432.73Z" fill="#E0E0E0"/>
<path d="M101.8 92.24L92.04 89.24C92.04 89.24 89.48 97.44 80.92 94.93C79.2628 94.4737 77.7884 93.5135 76.701 92.1823C75.6135 90.8512 74.9666 89.2149 74.85 87.5C74.7219 86.0538 74.9409 84.598 75.4887 83.2535C76.0366 81.909 76.8976 80.7147 78 79.77C80.51 77.55 84.91 76.2 91.12 79.41L97.99 57.41L88.34 54.41L84.34 67.3C84.34 67.3 69.7 66.57 65.05 81.48C60.6 95.75 72.36 103.06 77.84 104.77C82 106.07 96.61 109.51 101.8 92.24Z" fill="#F5F5F5"/>
<path d="M89.6472 49.831L99.4414 52.8872L102.295 43.7421L92.5008 40.6859L89.6472 49.831Z" fill="#F5F5F5"/>
<path d="M128.73 67.4L132.64 66.4C132.521 65.956 132.492 65.4924 132.555 65.037C132.618 64.5816 132.773 64.1436 133.009 63.7489C133.245 63.3543 133.558 63.0112 133.929 62.74C134.3 62.4687 134.722 62.2749 135.17 62.17C135.821 61.9733 136.518 61.9841 137.163 62.2009C137.808 62.4177 138.37 62.8298 138.77 63.38C139.11 63.8369 139.337 64.3676 139.433 64.929C139.528 65.4904 139.49 66.0664 139.32 66.61C138.95 67.88 137.76 69.26 135 69.49L137.33 78.3L141.19 77.3L139.83 72.14C141.294 71.2571 142.427 69.9173 143.054 68.327C143.681 66.7367 143.767 64.9843 143.3 63.34C141.8 57.62 136.3 57.65 134.13 58.22C132.45 58.61 126.84 60.52 128.73 67.4Z" fill="#EBEBEB"/>
<path d="M142.552 78.5848L138.614 79.6404L139.599 83.3167L143.537 82.2611L142.552 78.5848Z" fill="#EBEBEB"/>
<path d="M451.54 168.61L455.34 169.98C455.499 169.55 455.743 169.156 456.057 168.821C456.371 168.486 456.749 168.218 457.169 168.032C457.588 167.845 458.04 167.745 458.499 167.736C458.958 167.727 459.414 167.81 459.84 167.98C460.48 168.186 461.041 168.585 461.445 169.122C461.85 169.659 462.079 170.308 462.1 170.98C462.124 171.554 462.011 172.124 461.771 172.646C461.531 173.167 461.171 173.625 460.72 173.98C459.72 174.81 457.93 175.26 455.53 173.88L452.42 182.45L456.18 183.81L458 178.81C459.707 178.916 461.401 178.458 462.823 177.508C464.244 176.558 465.315 175.167 465.87 173.55C467.87 167.99 463.36 164.9 461.23 164.13C459.6 163.49 453.9 161.88 451.54 168.61Z" fill="#EBEBEB"/>
<path d="M455.618 185.547L451.8 184.165L450.51 187.728L454.327 189.111L455.618 185.547Z" fill="#EBEBEB"/>
<path d="M48.26 212.13L56.26 209.03C56.26 209.03 53.66 202.28 60.63 199.45C61.964 198.886 63.4402 198.749 64.8551 199.059C66.27 199.369 67.554 200.11 68.53 201.18C69.3604 202.07 69.9689 203.143 70.306 204.313C70.6431 205.482 70.6993 206.715 70.47 207.91C69.97 210.69 67.77 213.91 61.98 215.02L68.98 233.15L76.98 230.09L72.88 219.47C72.88 219.47 82.88 212.29 78.19 199.99C73.64 188.23 62 189.57 57.53 191.3C54.08 192.63 42.64 198 48.26 212.13Z" fill="#F5F5F5"/>
<path d="M78.4956 233.78L70.4239 236.89L73.3287 244.43L81.4004 241.32L78.4956 233.78Z" fill="#F5F5F5"/>
<path d="M454.67 242.64L448.97 244.83C448.97 244.83 450.81 249.62 445.87 251.62C444.924 252.015 443.88 252.11 442.878 251.892C441.876 251.674 440.966 251.153 440.27 250.4C439.682 249.769 439.251 249.008 439.013 248.179C438.775 247.35 438.736 246.477 438.9 245.63C439.26 243.63 440.82 241.39 444.9 240.63L440 227.74L434.36 229.91L437.26 237.44C435.207 239.01 433.728 241.211 433.048 243.705C432.369 246.198 432.528 248.846 433.5 251.24C436.71 259.57 444.93 258.63 448.13 257.4C450.55 256.45 458.65 252.65 454.67 242.64Z" fill="#F5F5F5"/>
<path d="M433.244 227.298L438.964 225.094L436.908 219.756L431.188 221.96L433.244 227.298Z" fill="#F5F5F5"/>
<path d="M470.77 463.77C470.77 463.92 371.92 464.03 250.01 464.03C128.1 464.03 29.23 463.92 29.23 463.77C29.23 463.62 128.06 463.51 250.01 463.51C371.96 463.51 470.77 463.63 470.77 463.77Z" fill="#263238"/>
<path d="M92.64 437.8C93.64 434.12 91.17 430.43 88.47 427.8C85.77 425.17 82.54 422.75 81.13 419.22C78.85 413.5 81.91 406.1 78.03 401.33C75.74 398.53 71.64 397.59 69.61 394.59C68.6714 392.937 68.0507 391.122 67.78 389.24C65.6222 379.739 60.949 370.994 54.25 363.92C53.7984 372.383 55.6325 380.811 59.56 388.32C61.13 391.32 63.07 394.24 63.56 397.59C64.41 403.02 61.37 408.59 62.71 413.95C64.24 420.05 71.09 424.14 71.41 430.42C71.69 435.73 67.06 440.42 67.41 445.7C67.6904 447.961 68.5101 450.122 69.8 452C73.9 458.83 79.94 463.53 89.08 463.38L100.28 463.77L92.64 437.8Z" fill="#FF725E"/>
<g opacity="0.3">
<path opacity="0.3" d="M92.64 437.8C93.64 434.12 91.17 430.43 88.47 427.8C85.77 425.17 82.54 422.75 81.13 419.22C78.85 413.5 81.91 406.1 78.03 401.33C75.74 398.53 71.64 397.59 69.61 394.59C68.6714 392.937 68.0507 391.122 67.78 389.24C65.6222 379.739 60.949 370.994 54.25 363.92C53.7984 372.383 55.6325 380.811 59.56 388.32C61.13 391.32 63.07 394.24 63.56 397.59C64.41 403.02 61.37 408.59 62.71 413.95C64.24 420.05 71.09 424.14 71.41 430.42C71.69 435.73 67.06 440.42 67.41 445.7C67.6904 447.961 68.5101 450.122 69.8 452C73.9 458.83 79.94 463.53 89.08 463.38L100.28 463.77L92.64 437.8Z" fill="black"/>
</g>
<path d="M102.54 464C103.566 464.158 104.611 464.138 105.63 463.94C106.867 463.752 108.083 463.444 109.26 463.02C110.886 462.455 112.406 461.623 113.76 460.56C114.574 459.905 115.211 459.056 115.61 458.09C115.945 457.008 116.12 455.883 116.13 454.75C116.153 453.539 116.243 452.331 116.4 451.13C116.611 449.852 117.073 448.628 117.76 447.53C119.08 445.21 121.28 443.01 121.98 439.86C122.68 436.71 122.2 433.41 121.68 430.05C121.16 426.69 120.68 423.05 121.94 419.53C123.2 416.01 125.6 412.86 126.83 408.92C128.06 404.98 127.48 400.64 127.74 396.41C127.817 394.261 128.313 392.148 129.2 390.19C130.1 388.19 131.36 386.34 132.34 384.26C134.34 380.04 134.68 375.26 135.22 370.57C135.49 368.21 135.75 365.82 136.02 363.42C136.19 360.994 136.609 358.591 137.27 356.25C138.029 353.89 138.924 351.576 139.95 349.32C140.479 348.153 140.913 346.946 141.25 345.71C141.438 344.431 141.559 343.142 141.61 341.85C141.729 339.263 141.629 336.67 141.31 334.1C141.01 331.52 140.54 328.96 140.26 326.37C140.26 326.21 140.26 326.06 140.26 325.92L140.2 325.41L139.75 325.63C137.386 326.843 135.332 328.585 133.75 330.72C132.198 332.811 130.949 335.11 130.04 337.55C128.17 342.36 127.5 347.4 126.56 352.21C125.62 357.02 124.42 361.75 121.96 365.75C120.73 367.75 119.24 369.57 117.96 371.51C116.57 373.403 115.62 375.583 115.18 377.89C114.51 382.63 117.12 386.79 116.58 390.99C116.336 393.047 115.654 395.029 114.58 396.8C113.58 398.59 112.37 400.25 111.23 401.91C110.075 403.538 109.07 405.269 108.23 407.08C107.439 408.853 106.972 410.753 106.85 412.69C106.58 416.47 107.11 420.05 106.85 423.43C106.538 426.652 105.597 429.781 104.08 432.64C102.73 435.39 101.22 437.88 99.96 440.3C99.33 441.5 98.74 442.68 98.26 443.87C97.8058 445.012 97.4707 446.199 97.26 447.41C96.9253 449.525 96.8983 451.677 97.18 453.8C97.4738 456.76 98.5814 459.581 100.38 461.95C100.655 462.308 100.959 462.643 101.29 462.95C101.511 463.182 101.756 463.39 102.02 463.57C102.44 463.88 102.66 464.02 102.66 464.02C101.861 463.388 101.133 462.671 100.49 461.88C98.7731 459.503 97.736 456.702 97.49 453.78C97.2353 451.684 97.2825 449.563 97.63 447.48C97.8406 446.298 98.1758 445.141 98.63 444.03C99.1367 442.827 99.7075 441.652 100.34 440.51C101.61 438.11 103.13 435.63 104.51 432.86C106.072 429.956 107.044 426.771 107.37 423.49C107.67 420.04 107.15 416.44 107.43 412.76C107.559 410.885 108.016 409.047 108.78 407.33C109.626 405.556 110.63 403.863 111.78 402.27C112.92 400.61 114.13 398.95 115.17 397.12C116.311 395.281 117.041 393.217 117.31 391.07C117.85 386.6 115.26 382.42 115.93 378.01C116.368 375.804 117.287 373.721 118.62 371.91C119.89 370 121.39 368.18 122.62 366.13C125.17 362.02 126.4 357.2 127.33 352.37C128.26 347.54 128.95 342.54 130.79 337.82C131.675 335.448 132.89 333.213 134.4 331.18C135.922 329.131 137.897 327.461 140.17 326.3L139.66 326.01C139.66 326.16 139.66 326.31 139.71 326.47C139.99 329.09 140.46 331.65 140.71 334.21C141.026 336.74 141.123 339.293 141 341.84C140.949 343.092 140.836 344.34 140.66 345.58C140.337 346.776 139.915 347.943 139.4 349.07C138.368 351.35 137.467 353.687 136.7 356.07C136.033 358.448 135.611 360.887 135.44 363.35C135.18 365.76 134.91 368.15 134.65 370.51C134.11 375.22 133.76 379.92 131.85 383.99C130.85 385.99 129.65 387.9 128.72 389.94C127.805 391.972 127.295 394.163 127.22 396.39C126.97 400.71 127.53 404.94 126.36 408.76C125.19 412.58 122.76 415.76 121.53 419.37C120.3 422.98 120.75 426.8 121.29 430.15C121.83 433.5 122.37 436.8 121.65 439.77C120.93 442.74 118.87 444.96 117.53 447.34C116.824 448.486 116.351 449.76 116.14 451.09C115.989 452.304 115.909 453.526 115.9 454.75C115.902 455.854 115.74 456.953 115.42 458.01C115.05 458.926 114.455 459.734 113.69 460.36C112.373 461.422 110.89 462.26 109.3 462.84C108.138 463.288 106.936 463.623 105.71 463.84C104.961 463.976 104.201 464.05 103.44 464.06C102.81 464 102.54 464 102.54 464Z" fill="#263238"/>
<path d="M137.92 332.1C137.867 332.207 137.829 332.322 137.81 332.44L137.57 333.44C137.35 334.33 137.08 335.66 136.66 337.32C136.24 338.98 135.21 340.86 134.34 343.17C133.321 345.77 132.433 348.42 131.68 351.11C130.82 354.11 130.07 357.41 129.27 360.97C128.59 364.762 127.385 368.441 125.69 371.9C124.77 373.72 123.69 375.56 122.92 377.58C122.113 379.643 121.572 381.8 121.31 384C120.741 388.556 119.933 393.079 118.89 397.55C116.65 406.72 114.51 415.46 112.56 423.42C110.61 431.38 108.77 438.5 107.25 444.52C105.73 450.54 104.58 455.34 103.74 458.77C103.35 460.41 103.04 461.7 102.82 462.65C102.73 463.06 102.65 463.39 102.59 463.65C102.579 463.766 102.579 463.884 102.59 464C102.648 463.896 102.692 463.785 102.72 463.67C102.79 463.4 102.89 463.08 103.01 462.67C103.26 461.74 103.61 460.45 104.06 458.82C104.96 455.42 106.23 450.59 107.8 444.64C109.37 438.69 111.2 431.49 113.25 423.58C115.3 415.67 117.38 406.87 119.64 397.69C120.677 393.207 121.465 388.67 122 384.1C122.256 381.953 122.78 379.846 123.56 377.83C124.35 375.83 125.36 374.04 126.28 372.2C128.28 368.55 129.07 364.63 129.86 361.1C130.65 357.57 131.35 354.23 132.17 351.25C132.99 348.27 133.85 345.61 134.71 343.31C135.57 341.01 136.52 339.11 136.93 337.39C137.34 335.67 137.53 334.39 137.71 333.47C137.777 333.057 137.837 332.723 137.89 332.47C137.92 332.22 137.94 332.1 137.92 332.1Z" fill="#263238"/>
<path d="M104.52 464.05C111.83 459.7 113.93 446.5 110.88 438.56C107.83 430.62 102.49 423.36 101.67 414.89C101.03 408.38 103.17 401.7 101.67 395.34C99.62 386.75 91.24 380.1 91.34 371.27C91.39 366.32 94.21 361.66 93.98 356.71C93.71 350.65 89.05 345.83 86.17 340.49C81.75 332.3 81.46 322.63 79.95 313.49C78.44 304.35 74.95 294.49 66.81 289.98C65.61 297.77 63.56 303.11 64.2 313.66C64.44 317.45 68.84 324.66 69.44 333.01C69.8 338.01 70.04 342.95 70.35 347.91C70.66 352.87 70.96 357.67 72.69 362.19C74.02 365.66 76.15 368.81 77.14 372.39C78.99 379.12 76.55 386.39 78.05 393.23C79.32 399.01 83.32 403.98 84.14 409.84C85.28 418.07 79.96 426.63 82.68 434.48C84.04 438.38 87.24 441.48 88.15 445.53C88.86 448.65 88.09 451.96 88.73 455.09C89.73 460.15 99.39 464.09 104.54 463.76" fill="#FF725E"/>
<path d="M68.81 297.67C68.7963 297.816 68.7963 297.964 68.81 298.11C68.81 298.44 68.91 298.86 68.97 299.39C69.14 300.52 69.33 302.17 69.71 304.31C70.09 306.45 71.23 308.87 72.11 311.79C72.99 314.71 73.97 318.05 74.79 321.79C75.61 325.53 76.33 329.7 77.06 334.17C77.79 338.64 78.59 343.51 80.81 348.17C81.81 350.5 82.99 352.84 83.81 355.34C84.6502 357.899 85.1675 360.553 85.35 363.24C85.7588 368.941 86.4765 374.616 87.5 380.24C89.74 391.78 91.87 402.77 93.81 412.78C95.75 422.79 97.7 431.72 99.26 439.28C100.82 446.84 102.1 452.88 102.99 457.14L103.99 461.99C104.11 462.51 104.2 462.92 104.28 463.24C104.307 463.387 104.347 463.531 104.4 463.67C104.418 463.524 104.418 463.376 104.4 463.23C104.34 462.9 104.27 462.49 104.18 461.96C103.96 460.8 103.65 459.16 103.26 457.08C102.42 452.81 101.26 446.71 99.75 439.18C98.24 431.65 96.45 422.62 94.46 412.65C92.47 402.68 90.46 391.65 88.21 380.12C87.1859 374.496 86.4648 368.821 86.05 363.12C85.8597 360.377 85.3255 357.669 84.46 355.06C83.57 352.52 82.4 350.17 81.37 347.85C79.17 343.26 78.37 338.47 77.61 334.02C76.85 329.57 76.12 325.39 75.25 321.63C74.38 317.87 73.43 314.51 72.45 311.63C71.47 308.75 70.38 306.31 69.94 304.22C69.5 302.13 69.29 300.45 69.08 299.34C68.98 298.82 68.9 298.4 68.84 298.07C68.8379 297.936 68.8279 297.803 68.81 297.67Z" fill="#263238"/>
<path d="M421.47 88.77H417.47C417.473 89.2237 417.384 89.6733 417.21 90.0922C417.036 90.5111 416.78 90.8908 416.456 91.2088C416.133 91.5268 415.748 91.7766 415.327 91.9435C414.905 92.1103 414.454 92.1907 414 92.18C413.33 92.204 412.67 92.0185 412.11 91.6492C411.551 91.2799 411.121 90.7453 410.88 90.12C410.669 89.5992 410.585 89.036 410.634 88.4764C410.682 87.9167 410.863 87.3766 411.16 86.9C411.84 85.78 413.32 84.77 416 85.24V76.24H412.07V81.5C410.457 81.9747 409.045 82.9655 408.05 84.3204C407.054 85.6752 406.531 87.3191 406.56 89C406.56 94.82 411.78 96.17 414.02 96.17C415.73 96.21 421.55 95.8 421.47 88.77Z" fill="#FF725E"/>
<path d="M412.04 74.42H416.03V70.69H412.04V74.42Z" fill="#FF725E"/>
<path d="M443.28 83.45C443.293 83.2803 443.293 83.1097 443.28 82.94C443.28 82.58 443.28 82.09 443.28 81.46C443.28 81.14 443.28 80.77 443.23 80.37C443.18 79.97 443.12 79.53 443.05 79.07C442.98 78.61 442.91 78.07 442.83 77.54L442.41 75.84C441.667 72.9124 440.451 70.1257 438.81 67.59C436.427 63.8348 433.214 60.676 429.42 58.3565C425.625 56.037 421.349 54.6185 416.92 54.21C415.59 54.0925 414.254 54.0658 412.92 54.13C412.25 54.13 411.56 54.13 410.92 54.26L408.86 54.57C406.033 55.0953 403.298 56.0284 400.74 57.34C398.069 58.7533 395.614 60.5414 393.45 62.65C391.234 64.8958 389.382 67.4735 387.96 70.29C386.43 73.1937 385.428 76.346 385 79.6C384.875 80.4245 384.805 81.2563 384.79 82.09C384.723 82.9249 384.707 83.7631 384.74 84.6C384.958 89.9645 386.634 95.1679 389.59 99.65V99.34C388.2 102.81 386.83 106.22 385.49 109.54L385.25 110.15L385.88 109.97L396.78 106.97L396.52 106.91C400.191 109.689 404.468 111.56 409 112.37C411.103 112.762 413.245 112.893 415.38 112.76C416.409 112.745 417.436 112.648 418.45 112.47L419.94 112.24C420.43 112.15 420.94 112 421.38 111.89C428.097 110.188 433.989 106.15 438 100.5C439.496 98.4185 440.697 96.1403 441.57 93.73C441.76 93.2 441.94 92.73 442.11 92.21C442.28 91.69 442.37 91.21 442.48 90.76C442.59 90.31 442.71 89.85 442.81 89.43C442.91 89.01 442.94 88.6 443 88.21C443.09 87.44 443.23 86.76 443.26 86.21C443.29 85.66 443.26 85.13 443.26 84.71C443.26 84.29 443.26 84.03 443.26 83.8C443.26 83.57 443.26 83.49 443.26 83.49C443.245 83.5928 443.245 83.6972 443.26 83.8C443.26 84.03 443.26 84.33 443.19 84.71C443.12 85.09 443.13 85.62 443.09 86.2C443.05 86.78 442.9 87.46 442.78 88.2C441.826 93.7346 439.286 98.8732 435.467 102.992C431.649 107.11 426.717 110.031 421.27 111.4C420.8 111.51 420.33 111.65 419.85 111.74L418.38 111.96C417.388 112.126 416.385 112.216 415.38 112.23C413.284 112.34 411.183 112.203 409.12 111.82C404.693 111.005 400.519 109.166 396.93 106.45L396.81 106.35H396.66L385.75 109.35L386.13 109.78L390.24 99.59L390.3 99.43L390.21 99.28C388.241 96.3008 386.844 92.9808 386.09 89.49C385.745 87.8705 385.537 86.2246 385.47 84.57C385.437 83.7531 385.453 82.9349 385.52 82.12C385.526 81.3062 385.593 80.4939 385.72 79.69C386.104 76.5122 387.049 73.4278 388.51 70.58C389.9 67.8274 391.704 65.3047 393.86 63.1C395.978 61.0299 398.382 59.2753 401 57.89C403.501 56.589 406.18 55.6625 408.95 55.14L410.95 54.83C411.62 54.73 412.29 54.74 412.95 54.69C414.253 54.628 415.56 54.6514 416.86 54.76C421.216 55.1413 425.428 56.5102 429.176 58.7628C432.924 61.0153 436.109 64.0923 438.49 67.76C440.14 70.2514 441.376 72.9936 442.15 75.88L442.6 77.56C442.69 78.09 442.77 78.56 442.85 79.06C442.93 79.56 442.99 79.96 443.06 80.36C443.13 80.76 443.11 81.12 443.14 81.44C443.14 82.06 443.22 82.55 443.25 82.91C443.231 83.0905 443.241 83.2728 443.28 83.45Z" fill="#263238"/>
<path d="M145.07 201.38H202.82C202.82 201.38 202.82 152.89 253.21 152.03C279.38 151.57 292.95 168.72 298.47 181.85C304.87 197.1 302.93 214.48 294.35 228.63C284.56 244.78 263.46 261.01 224.54 254.15L224.17 382.82H281.28V306.54C281.28 306.54 361.37 285.84 361.37 197.54C361.37 113.09 293.08 94.85 256.37 93.67C235.95 93.02 228.55 92.14 203.29 95.73C171.1 100.33 144.39 137.71 145.07 201.38Z" fill="#FF725E"/>
<path d="M281.97 409.64H224.01V463.77H281.97V409.64Z" fill="#FF725E"/>
<path opacity="0.1" d="M281.97 409.64H224.01V463.77H281.97V409.64Z" fill="black"/>
<path opacity="0.1" d="M145.07 201.38H202.82C202.82 201.38 202.82 152.89 253.21 152.03C279.38 151.57 292.95 168.72 298.47 181.85C304.87 197.1 302.93 214.48 294.35 228.63C284.56 244.78 263.46 261.01 224.54 254.15L224.17 382.82H281.28V306.54C281.28 306.54 361.37 285.84 361.37 197.54C361.37 113.09 293.08 94.85 256.37 93.67C235.95 93.02 228.55 92.14 203.29 95.73C171.1 100.33 144.39 137.71 145.07 201.38Z" fill="black"/>
<path d="M121.14 201.38H178.9C178.9 201.38 178.9 152.89 229.29 152.03C255.46 151.57 269.03 168.72 274.54 181.85C280.95 197.1 279.01 214.48 270.43 228.63C260.64 244.78 239.17 259.46 200.25 252.63V382.82H257.36V306.54C257.36 306.54 337.45 285.84 337.45 197.54C337.45 113.09 261.71 93.48 229.3 93.48C204.51 93.51 120.05 99.5 121.14 201.38Z" fill="#FF725E"/>
<path opacity="0.3" d="M121.14 201.38H178.9C178.9 201.38 178.9 152.89 229.29 152.03C255.46 151.57 269.03 168.72 274.54 181.85C280.95 197.1 279.01 214.48 270.43 228.63C260.64 244.78 239.17 259.46 200.25 252.63V382.82H257.36V306.54C257.36 306.54 337.45 285.84 337.45 197.54C337.45 113.09 261.71 93.48 229.3 93.48C204.51 93.51 120.05 99.5 121.14 201.38Z" fill="black"/>
<path d="M258.05 409.64H200.09V463.77H258.05V409.64Z" fill="#FF725E"/>
<path opacity="0.3" d="M258.05 409.64H200.09V463.77H258.05V409.64Z" fill="black"/>
<path d="M235.81 152.29C235.524 152.315 235.236 152.315 234.95 152.29C234.38 152.29 233.56 152.1 232.49 152.09C229.465 151.941 226.432 152.069 223.43 152.47C218.978 153.034 214.597 154.063 210.36 155.54C207.862 156.413 205.429 157.462 203.08 158.68C200.541 159.949 198.149 161.495 195.95 163.29C193.766 165.101 191.808 167.169 190.12 169.45C188.52 171.558 187.06 173.77 185.75 176.07C183.563 179.987 181.829 184.141 180.58 188.45C179.733 191.358 179.151 194.337 178.84 197.35C178.72 198.41 178.69 199.25 178.66 199.81C178.661 200.099 178.634 200.387 178.58 200.67C178.554 200.384 178.554 200.096 178.58 199.81C178.58 199.24 178.58 198.4 178.67 197.33C178.9 194.285 179.433 191.27 180.26 188.33C181.463 183.971 183.174 179.769 185.36 175.81C186.673 173.485 188.139 171.25 189.75 169.12C191.452 166.802 193.434 164.703 195.65 162.87C197.876 161.05 200.298 159.484 202.87 158.2C205.234 156.96 207.684 155.891 210.2 155C214.476 153.528 218.898 152.522 223.39 152C226.412 151.629 229.464 151.558 232.5 151.79C233.325 151.843 234.146 151.943 234.96 152.09C235.248 152.137 235.532 152.203 235.81 152.29Z" fill="#263238"/>
<path d="M322.83 142C322.83 142 322.76 141.93 322.64 141.78C322.52 141.63 322.34 141.37 322.14 141.08L320.23 138.38C319.82 137.8 319.38 137.13 318.86 136.44L317.06 134.25L315 131.72C314.25 130.84 313.37 129.99 312.49 129.06C311.61 128.13 310.71 127.14 309.69 126.19C308.67 125.24 307.58 124.27 306.46 123.27C305.9 122.77 305.35 122.27 304.75 121.74L302.89 120.27C301.62 119.27 300.36 118.27 298.99 117.27C293.019 112.998 286.684 109.257 280.06 106.09L274.79 103.71L269.56 101.71C267.85 101 266.11 100.5 264.43 99.94C262.75 99.38 261.11 98.81 259.43 98.42L254.65 97.17C253.1 96.76 251.56 96.51 250.09 96.17C248.62 95.83 247.2 95.53 245.81 95.36L241.81 94.78C239.28 94.35 236.96 94.26 234.94 94.06C233.94 93.98 232.94 93.87 232.11 93.83L229.73 93.77L226.43 93.66H225.57H225.28C225.376 93.645 225.474 93.645 225.57 93.66H226.43H229.73H232.12C232.99 93.66 233.94 93.78 234.96 93.85C236.96 94.02 239.32 94.09 241.85 94.5L245.85 95.04C247.24 95.2 248.66 95.56 250.14 95.83C251.62 96.1 253.14 96.38 254.73 96.83L259.53 98.07C261.19 98.45 262.83 99.07 264.53 99.58C266.23 100.09 267.96 100.58 269.67 101.34L274.93 103.34L280.23 105.73C286.889 108.904 293.248 112.672 299.23 116.99C300.61 117.99 301.87 119.06 303.14 120.05L305 121.4C305.6 121.9 306.15 122.4 306.71 122.94L309.93 125.94C310.93 126.94 311.83 127.94 312.72 128.85C313.61 129.76 314.46 130.65 315.21 131.54L317.21 134.09L318.99 136.31C319.5 137.01 319.93 137.69 320.33 138.31C321.11 139.48 321.72 140.4 322.15 141.06L322.62 141.79C322.699 141.851 322.769 141.921 322.83 142Z" fill="#263238"/>
<path d="M316.81 266C316.691 266.216 316.547 266.418 316.38 266.6L315 268.23C314.43 268.96 313.71 269.83 312.82 270.8C311.93 271.77 310.98 272.91 309.82 274.09C308.66 275.27 307.42 276.59 306.01 277.92C304.6 279.25 303.07 280.65 301.44 282.11C294.291 288.35 286.453 293.755 278.08 298.22C276.14 299.22 274.31 300.22 272.54 300.99C270.77 301.76 269.12 302.55 267.6 303.19C266.08 303.83 264.68 304.36 263.46 304.83C262.24 305.3 261.17 305.68 260.29 305.96L258.29 306.61C258.058 306.702 257.816 306.769 257.57 306.81C257.786 306.687 258.014 306.586 258.25 306.51L260.25 305.77C261.12 305.46 262.17 305.06 263.38 304.56C264.59 304.06 265.99 303.56 267.49 302.85C268.99 302.14 270.65 301.47 272.38 300.6C274.11 299.73 275.96 298.81 277.89 297.8C281.7 295.7 285.81 293.24 289.96 290.4C294.11 287.56 297.84 284.57 301.16 281.75C302.79 280.31 304.35 278.96 305.74 277.6C307.13 276.24 308.43 275.01 309.58 273.83C310.73 272.65 311.74 271.56 312.64 270.6C313.54 269.64 314.28 268.8 314.88 268.1L316.28 266.51C316.443 266.326 316.62 266.155 316.81 266Z" fill="#263238"/>
<path d="M256.35 378.28C256.2 378.28 256.08 362.22 256.08 342.41C256.08 322.6 256.2 306.53 256.35 306.53C256.5 306.53 256.61 322.59 256.61 342.41C256.61 362.23 256.49 378.28 256.35 378.28Z" fill="#263238"/>
<path d="M258.55 460.1C258.4 460.1 258.29 448.83 258.29 434.93C258.29 421.03 258.4 409.75 258.55 409.75C258.7 409.75 258.81 421.02 258.81 434.93C258.81 448.84 258.69 460.1 258.55 460.1Z" fill="#263238"/>
<path d="M315.4 193.71C314.4 195.71 318.13 197.35 320.28 198C322.474 198.538 324.744 198.694 326.99 198.46C329.99 198.3 333.06 198.02 335.65 196.54C337.918 195.135 339.731 193.103 340.87 190.69C341.993 188.285 342.88 185.776 343.52 183.2C343.52 183.2 319.89 184.74 315.4 193.71Z" fill="#FF725E"/>
<g opacity="0.4">
<path opacity="0.4" d="M315.4 193.71C314.4 195.71 318.13 197.35 320.28 198C322.474 198.538 324.744 198.694 326.99 198.46C329.99 198.3 333.06 198.02 335.65 196.54C337.918 195.135 339.731 193.103 340.87 190.69C341.993 188.285 342.88 185.776 343.52 183.2C343.52 183.2 319.89 184.74 315.4 193.71Z" fill="black"/>
</g>
<path d="M382.14 187.31C386.036 190.073 390.704 191.536 395.48 191.49C397.769 191.618 400.027 190.907 401.83 189.49C402.6 188.78 403.18 187.88 403.97 187.2C404.51 186.74 405.14 186.39 405.65 185.9C405.919 185.668 406.127 185.373 406.254 185.042C406.381 184.71 406.425 184.352 406.38 184C406.183 183.131 405.696 182.356 405 181.8C402.29 180.26 399.05 180.32 395.93 180.39C392.808 180.525 389.723 181.129 386.78 182.18C384.36 183 381.83 184.18 380.6 186.38" fill="#FF725E"/>
<g opacity="0.4">
<path opacity="0.4" d="M406.38 184C406.027 183.157 405.404 182.453 404.61 182C401.9 180.46 399.05 180.32 395.93 180.39C392.808 180.525 389.723 181.129 386.78 182.18C384.36 183 381.83 184.18 380.6 186.38L382.14 187.31C386.036 190.073 390.704 191.536 395.48 191.49C397.769 191.618 400.027 190.907 401.83 189.49C402.6 188.78 403.18 187.88 403.97 187.2C404.51 186.74 405.14 186.39 405.65 185.9C405.919 185.668 406.127 185.373 406.254 185.042C406.381 184.71 406.425 184.352 406.38 184Z" fill="black"/>
</g>
<path d="M336 223.2L385.85 223.86C385.951 223.86 386.052 223.836 386.142 223.79C386.233 223.744 386.311 223.678 386.371 223.596C386.432 223.514 386.472 223.42 386.489 223.32C386.506 223.22 386.5 223.117 386.47 223.02L380.62 204.78C380.62 204.78 381.48 195.66 382.67 184.7C384.48 168.05 386.89 147.12 386.92 147.18C383.51 137.62 363.39 136 363.39 136L340.46 137.36L339.66 136.01L333.06 139.08C331.621 139.75 330.236 140.532 328.92 141.42C324.56 144.33 314.06 151.02 312.14 158.47C307.71 175.72 315.21 194.97 315.21 194.97L320.03 191.2C321.244 190.264 322.52 189.413 323.85 188.65L333.51 214.54C332.935 214.902 332.448 215.389 332.085 215.963C331.722 216.537 331.491 217.185 331.41 217.86C331.33 219.96 332.41 222.48 336 223.2Z" fill="#FF725E"/>
<g opacity="0.3">
<path opacity="0.3" d="M357.39 192.68C358.97 184.18 358.14 175.44 357.29 166.84C354.53 173.84 354.63 181.84 351.7 188.78C351.341 189.513 351.079 190.289 350.92 191.09C350.844 191.492 350.864 191.906 350.978 192.299C351.093 192.692 351.299 193.052 351.58 193.35C352.38 194.08 353.58 193.68 354.64 193.56C355.589 193.379 356.512 193.083 357.39 192.68Z" fill="black"/>
</g>
<g opacity="0.4">
<path opacity="0.4" d="M339 212.36C343 213.75 347.26 211.16 351.49 210.7C354.29 210.4 357.09 211.04 359.87 211.49C365.491 212.399 371.21 212.541 376.87 211.91C377.738 211.862 378.588 211.641 379.37 211.26C379.774 210.985 380.104 210.615 380.333 210.183C380.561 209.75 380.68 209.269 380.68 208.78C371.26 207.78 361.85 207.24 352.43 206.27C350.085 205.87 347.684 205.948 345.37 206.5C342.53 207.38 340.37 209.61 338.37 211.82" fill="black"/>
</g>
<path d="M404.94 180.72C400.87 171.55 386.52 146.19 386.52 146.19L375.41 160.12L378 187.47C378 187.47 383.87 180.92 400.28 180.79C401.473 180.838 402.639 181.152 403.695 181.709C404.75 182.266 405.668 183.052 406.38 184.01L404.94 180.72Z" fill="#FF725E"/>
<path d="M338.23 175.87C337.437 173.926 336.809 171.919 336.35 169.87C335.729 167.874 335.274 165.831 334.99 163.76C335.771 165.707 336.396 167.714 336.86 169.76C337.481 171.756 337.939 173.8 338.23 175.87Z" fill="#263238"/>
<path d="M374.57 158.27C374.932 158.526 375.267 158.817 375.57 159.14C376.453 159.993 377.282 160.902 378.05 161.86C380.636 165.021 382.453 168.738 383.36 172.72C383.831 174.921 383.935 177.185 383.67 179.42C383.42 181.47 383.03 183.27 382.77 184.79C382.51 186.31 382.35 187.55 382.27 188.41C382.268 188.857 382.221 189.302 382.13 189.74C382.059 189.294 382.039 188.841 382.07 188.39C382.114 187.165 382.228 185.943 382.41 184.73C382.62 183.2 382.97 181.38 383.2 179.37C383.431 177.185 383.313 174.978 382.85 172.83C381.954 168.923 380.217 165.257 377.76 162.09C375.93 159.63 374.49 158.35 374.57 158.27Z" fill="#263238"/>
<path d="M364.39 221C364.043 221.155 363.676 221.262 363.3 221.32C362.873 221.433 362.439 221.516 362 221.57C361.49 221.64 360.91 221.75 360.26 221.78C358.737 221.92 357.203 221.92 355.68 221.78C353.816 221.588 351.974 221.22 350.18 220.68C348.395 220.106 346.667 219.366 345.02 218.47C343.685 217.725 342.416 216.865 341.23 215.9C340.71 215.5 340.29 215.08 339.91 214.73C339.582 214.435 339.272 214.121 338.98 213.79C338.702 213.533 338.463 213.236 338.27 212.91C338.34 212.84 339.41 214.04 341.46 215.61C342.658 216.521 343.925 217.337 345.25 218.05C346.879 218.906 348.578 219.618 350.33 220.18C352.094 220.711 353.901 221.086 355.73 221.3C357.224 221.461 358.729 221.508 360.23 221.44C362.8 221.3 364.37 220.92 364.39 221Z" fill="#263238"/>
<path d="M379.78 215.32C380.015 215.772 380.149 216.271 380.17 216.78C380.33 217.999 380.238 219.238 379.9 220.42C379.556 221.629 378.86 222.709 377.9 223.52C377.17 224.13 376.61 224.32 376.58 224.27C376.55 224.22 377.02 223.89 377.65 223.27C378.459 222.426 379.046 221.396 379.36 220.27C380.16 217.63 379.59 215.33 379.78 215.32Z" fill="#263238"/>
<path d="M377.07 218.84C377.287 219.869 377.2 220.938 376.82 221.918C376.44 222.898 375.784 223.747 374.93 224.36C374.82 224.25 375.75 223.26 376.33 221.73C376.91 220.2 376.92 218.85 377.07 218.84Z" fill="#263238"/>
<path d="M368.15 185.94C367.62 186.836 367.025 187.691 366.37 188.5C365.853 189.403 365.268 190.266 364.62 191.08C364.812 190.025 365.266 189.034 365.94 188.2C366.473 187.271 367.234 186.494 368.15 185.94Z" fill="#263238"/>
<path d="M333.93 161.72C333.168 161.273 332.43 160.785 331.72 160.26C328.164 157.923 324.127 156.416 319.91 155.85C319.027 155.786 318.149 155.669 317.28 155.5C318.166 155.378 319.064 155.378 319.95 155.5C324.282 155.87 328.432 157.415 331.95 159.97C332.688 160.459 333.354 161.048 333.93 161.72Z" fill="#263238"/>
<path d="M386.52 145.86C384.73 147.301 383.058 148.883 381.52 150.59C380.104 152.412 378.836 154.345 377.73 156.37C377.848 155.689 378.082 155.033 378.42 154.43C379.144 152.931 380.051 151.527 381.12 150.25C382.192 148.976 383.422 147.844 384.78 146.88C385.297 146.442 385.886 146.097 386.52 145.86Z" fill="#263238"/>
<path d="M365.94 137.62C366.031 137.764 366.105 137.919 366.16 138.08C366.355 138.533 366.512 139.001 366.63 139.48C367.052 141.262 367.052 143.118 366.63 144.9C366.008 147.56 364.583 149.965 362.55 151.79C359.983 153.964 356.713 155.13 353.35 155.07C349.984 155.082 346.704 154.005 344 152C341.845 150.355 340.097 148.237 338.89 145.81C338.077 144.185 337.504 142.45 337.19 140.66C337.098 140.178 337.038 139.69 337.01 139.2C336.982 139.028 336.982 138.852 337.01 138.68C337.01 138.68 337.12 139.38 337.4 140.62C337.789 142.359 338.404 144.04 339.23 145.62C340.45 147.974 342.182 150.024 344.3 151.62C346.906 153.55 350.058 154.6 353.3 154.62C356.542 154.68 359.697 153.572 362.19 151.5C364.154 149.742 365.548 147.437 366.19 144.88C366.635 143.154 366.696 141.352 366.37 139.6C366.18 138.28 365.88 137.64 365.94 137.62Z" fill="#263238"/>
<g opacity="0.3">
<path opacity="0.3" d="M369.44 187.71C369.44 187.21 369.36 186.62 368.92 186.37C368.78 186.3 368.626 186.263 368.47 186.263C368.314 186.263 368.16 186.3 368.02 186.37C367.74 186.521 367.492 186.725 367.29 186.97C366.114 188.193 365.205 189.647 364.62 191.24L369.52 190.81C369.49 189.8 369.47 188.74 369.44 187.71Z" fill="black"/>
</g>
<g opacity="0.3">
<path opacity="0.3" d="M385.71 177.4C385.217 174.596 383.989 171.973 382.15 169.8C384.27 176.72 383.56 180.63 382.37 185.37L382.63 184.71C384 181.94 386.08 180.2 385.71 177.4Z" fill="black"/>
</g>
<path d="M375.92 409.86L372.93 454.71L353.43 454.48L350.36 407.85L375.92 409.86Z" fill="#FFBE9D"/>
<path d="M373.48 448.81V450.11C373.48 450.11 395.48 458.95 395.69 463.11L352 462.87L352.68 448.34C359.19 451.39 366 451.77 373.48 448.81Z" fill="#FF725E"/>
<path d="M357.11 453C356.695 453.125 356.341 453.398 356.112 453.766C355.884 454.134 355.798 454.573 355.87 455C355.977 455.427 356.245 455.795 356.618 456.028C356.991 456.261 357.44 456.341 357.87 456.25C358.315 456.117 358.695 455.823 358.935 455.426C359.175 455.028 359.259 454.556 359.17 454.1C359.012 453.668 358.691 453.315 358.277 453.115C357.862 452.915 357.387 452.885 356.95 453.03" fill="white"/>
<path d="M352 462.87L352.16 459.38L394 460.9C394 460.9 395.94 461.76 395.71 463.12L352 462.87Z" fill="#263238"/>
<path d="M373.64 450.23C373.64 450.44 372.56 450.53 371.51 451.23C370.46 451.93 369.89 452.8 369.7 452.72C369.51 452.64 369.83 451.4 371.12 450.6C372.41 449.8 373.69 450 373.64 450.23Z" fill="#263238"/>
<path d="M378.21 452.15C378.26 452.36 377.33 452.71 376.6 453.61C375.87 454.51 375.66 455.46 375.44 455.45C375.22 455.44 375.1 454.23 376.03 453.14C376.96 452.05 378.2 452 378.21 452.15Z" fill="#263238"/>
<path d="M380.78 457.65C380.58 457.65 380.29 456.65 380.85 455.46C381.41 454.27 382.4 453.84 382.49 454.01C382.58 454.18 381.96 454.81 381.49 455.78C381.02 456.75 381 457.63 380.78 457.65Z" fill="#263238"/>
<path d="M372.36 81.85C373.49 79.05 372.12 75.66 369.69 73.85C367.129 72.1641 364.006 71.5568 361 72.16C358.034 72.7818 355.163 73.7905 352.46 75.16C351.203 73.8924 349.619 72.999 347.883 72.5798C346.148 72.1605 344.331 72.2318 342.634 72.7857C340.936 73.3397 339.427 74.3544 338.273 75.7166C337.119 77.0788 336.367 78.7349 336.1 80.5C335.019 80.2278 333.884 80.2552 332.817 80.5792C331.75 80.9032 330.792 81.5116 330.044 82.339C329.297 83.1665 328.789 84.1818 328.575 85.276C328.361 86.3702 328.449 87.502 328.83 88.55L342.35 93.3L357.11 119.3C359.291 121.161 362.075 122.165 364.942 122.124C367.81 122.084 370.564 121.001 372.692 119.079C374.82 117.157 376.175 114.527 376.506 111.678C376.837 108.83 376.12 105.959 374.49 103.6C375.317 102.865 376.019 102 376.57 101.04C377.749 100.343 378.779 99.4175 379.597 98.3188C380.416 97.2201 381.009 95.9696 381.34 94.64C382.65 88.85 378.17 82.53 372.36 81.85Z" fill="#263238"/>
<path d="M363.41 136C362.57 131.77 361.99 128.87 362 128.9C362.01 128.93 370 125.8 369.42 114.67C369.14 109.13 367.03 100.4 365.07 93.32C363.31 86.94 357.36 79.91 351.07 81.94L332 91.24C330.09 91.86 329.76 93.66 330.21 95.61V96.61L337.62 127.27L340.75 140.97C341.417 143.783 343.113 146.244 345.505 147.869C347.896 149.494 350.809 150.165 353.67 149.75C355.233 149.53 356.734 148.993 358.081 148.173C359.429 147.352 360.595 146.264 361.507 144.976C362.419 143.689 363.058 142.228 363.385 140.685C363.713 139.141 363.721 137.547 363.41 136Z" fill="#FFBE9D"/>
<path d="M365 100.72C365.08 101.075 365.021 101.447 364.835 101.759C364.649 102.072 364.35 102.301 364 102.4C363.823 102.449 363.638 102.462 363.457 102.438C363.275 102.414 363.1 102.354 362.942 102.261C362.784 102.167 362.646 102.043 362.538 101.895C362.429 101.747 362.352 101.579 362.31 101.4C362.23 101.046 362.289 100.676 362.476 100.365C362.662 100.054 362.961 99.8265 363.31 99.73C363.486 99.679 363.671 99.6645 363.852 99.6871C364.034 99.7098 364.21 99.7693 364.368 99.8619C364.526 99.9545 364.663 100.078 364.772 100.226C364.881 100.373 364.958 100.542 365 100.72Z" fill="#263238"/>
<path d="M364.13 98.59C363.99 98.81 362.78 98.26 361.3 98.59C359.82 98.92 358.88 99.88 358.68 99.73C358.48 99.58 358.68 99.3 359.09 98.86C359.64 98.2786 360.356 97.8806 361.14 97.72C361.914 97.5532 362.72 97.6409 363.44 97.97C364 98.2 364.19 98.5 364.13 98.59Z" fill="#263238"/>
<path d="M350.48 104C350.56 104.354 350.501 104.724 350.314 105.035C350.128 105.346 349.829 105.574 349.48 105.67C349.307 105.72 349.126 105.736 348.948 105.716C348.769 105.696 348.596 105.64 348.439 105.553C348.282 105.465 348.143 105.348 348.032 105.206C347.921 105.065 347.838 104.903 347.79 104.73C347.71 104.375 347.769 104.003 347.955 103.69C348.141 103.378 348.44 103.149 348.79 103.05C348.963 103 349.145 102.985 349.324 103.006C349.503 103.026 349.677 103.083 349.834 103.171C349.991 103.259 350.129 103.378 350.24 103.521C350.351 103.663 350.433 103.826 350.48 104Z" fill="#263238"/>
<path d="M349.75 102.12C349.62 102.34 348.4 101.78 346.92 102.12C345.44 102.46 344.5 103.4 344.3 103.26C344.1 103.12 344.3 102.83 344.71 102.38C345.263 101.804 345.978 101.41 346.76 101.25C347.533 101.086 348.338 101.17 349.06 101.49C349.59 101.73 349.82 102 349.75 102.12Z" fill="#263238"/>
<path d="M357.28 111.52C358.013 111.116 358.792 110.8 359.6 110.58C359.97 110.46 360.32 110.31 360.33 110.04C360.278 109.642 360.107 109.269 359.84 108.97L358.11 106.31C355.69 102.52 353.85 99.38 354 99.31C354.15 99.24 356.24 102.21 358.66 106L360.35 108.68C360.682 109.09 360.862 109.602 360.86 110.13C360.83 110.274 360.769 110.409 360.681 110.527C360.593 110.644 360.48 110.741 360.35 110.81C360.154 110.914 359.946 110.991 359.73 111.04C358.939 111.311 358.115 111.472 357.28 111.52Z" fill="#263238"/>
<path d="M362 128.9C356.942 130.043 351.666 129.759 346.76 128.08C346.76 128.08 352 134.92 362.57 131.65L362 128.9Z" fill="#EB996E"/>
<path d="M350 100C349.9 100.43 348.37 100.42 346.63 100.85C344.89 101.28 343.51 101.93 343.23 101.59C343.11 101.43 343.31 101.01 343.84 100.59C344.544 99.9968 345.381 99.5817 346.28 99.38C347.171 99.1686 348.099 99.1686 348.99 99.38C349.7 99.51 350.07 99.8 350 100Z" fill="#263238"/>
<path d="M363.56 93.87C363.32 94.27 362.04 94.17 360.56 94.46C359.08 94.75 357.91 95.25 357.56 94.96C357.4 94.81 357.56 94.43 357.99 93.96C358.65 93.4047 359.448 93.0384 360.3 92.9C361.138 92.7312 362.005 92.7935 362.81 93.08C363.42 93.36 363.66 93.67 363.56 93.87Z" fill="#263238"/>
<path d="M336.71 84.08C336.931 85.1633 337.388 86.1845 338.049 87.0712C338.709 87.9579 339.557 88.6883 340.532 89.2104C341.506 89.7325 342.584 90.0337 343.688 90.0923C344.792 90.151 345.896 89.9659 346.92 89.55C348.5 88.91 350.14 87.71 351.74 88.29C353.34 88.87 354 91.15 355.53 92C357.78 93.26 360.53 91.08 363.04 91.3C365.04 91.47 366.55 93 368.1 94.3C369.65 95.6 371.79 96.58 373.54 95.64C373.139 93.97 372.545 92.3524 371.77 90.82C370.988 89.2772 369.694 88.0541 368.11 87.36C367.23 87.01 366.28 86.89 365.44 86.46C363.63 85.54 362.82 83.46 361.51 81.89C360.65 80.9006 359.566 80.1305 358.349 79.6436C357.131 79.1567 355.815 78.9669 354.51 79.09C352.35 79.31 350.3 80.4 348.12 80.31C346.51 80.24 344.97 79.52 343.36 79.55C340.23 79.55 337.88 82.35 336.14 84.96" fill="#263238"/>
<path d="M347.25 86.37C345.81 86.26 342.87 85.96 341.9 84.94C340.915 83.8378 339.657 83.0138 338.253 82.5505C336.849 82.0872 335.348 82.0008 333.9 82.3C332.463 82.7283 331.202 83.6066 330.302 84.8056C329.402 86.0045 328.91 87.4608 328.9 88.96C327.15 89.387 325.548 90.2786 324.263 91.5406C322.979 92.8026 322.058 94.3883 321.6 96.13C321.135 97.9533 321.119 99.8625 321.554 101.693C321.99 103.524 322.863 105.222 324.1 106.64C324.701 107.391 325.249 108.183 325.74 109.01C325.062 109.851 324.466 110.755 323.96 111.71C321.67 116.77 327.88 118.71 327.88 118.71C327.88 122.11 331.03 122.09 333.04 122.08C335.05 122.07 336.16 127.44 337.73 127.23L336.14 110.66C336.373 110.751 336.62 110.798 336.87 110.8C340.66 110.87 339.67 103.69 338.45 101.8C339.579 100.394 340.533 98.8563 341.29 97.22C341.976 94.7185 342.025 92.0849 341.43 89.56C342.7 89.4 347.87 86.41 347.25 86.37Z" fill="#263238"/>
<path d="M336.64 111.54C336.511 111.013 336.25 110.528 335.883 110.13C335.516 109.731 335.053 109.432 334.539 109.26C334.025 109.088 333.476 109.05 332.943 109.147C332.409 109.245 331.91 109.477 331.49 109.82C330.49 110.68 329.96 112.12 330.56 114.53C332.18 120.97 338.31 118.02 338.27 117.84C338.23 117.66 337.34 114.2 336.64 111.54Z" fill="#FFBE9D"/>
<path d="M335.69 115.89C335.69 115.89 335.6 116 335.43 116.13C335.194 116.311 334.896 116.394 334.6 116.36C333.86 116.28 333.01 115.36 332.69 114.19C332.537 113.643 332.507 113.07 332.6 112.51C332.61 112.293 332.673 112.081 332.782 111.893C332.892 111.705 333.046 111.546 333.23 111.43C333.351 111.365 333.492 111.344 333.627 111.371C333.762 111.399 333.884 111.472 333.97 111.58C334.1 111.73 334.09 111.87 334.13 111.88C334.17 111.89 334.24 111.73 334.13 111.48C334.053 111.332 333.93 111.212 333.78 111.14C333.568 111.054 333.332 111.054 333.12 111.14C332.869 111.259 332.652 111.44 332.489 111.666C332.327 111.891 332.224 112.154 332.19 112.43C332.06 113.06 332.084 113.711 332.26 114.33C332.372 114.911 332.652 115.445 333.067 115.867C333.481 116.289 334.011 116.579 334.59 116.7C334.778 116.708 334.966 116.673 335.139 116.599C335.312 116.524 335.466 116.412 335.59 116.27C335.72 116.05 335.72 115.9 335.69 115.89Z" fill="#EB996E"/>
<path d="M371.17 102.55C371.17 102.55 371.76 102.1 372.58 101.1C373.712 99.6591 374.406 97.9238 374.58 96.1C374.712 94.855 374.59 93.5961 374.22 92.4C373.793 91.028 373.001 89.7976 371.93 88.84C370.693 87.7597 369.195 87.0215 367.585 86.6988C365.974 86.376 364.308 86.4799 362.75 87C362.45 87.1 362.17 87.25 361.89 87.37C361.61 87.49 361.36 87.67 361.1 87.82L360.7 88.04V87.6C360.691 86.8254 360.404 86.0798 359.89 85.5C359.364 84.9373 358.718 84.4999 358 84.22C356.642 83.654 355.137 83.5418 353.71 83.9C350.95 84.53 348.61 85.79 346.4 86.05C344.667 86.3512 342.884 85.9946 341.4 85.05C341.008 84.7806 340.669 84.4416 340.4 84.05C340.24 83.78 340.16 83.63 340.18 83.62C340.542 84.1138 340.985 84.5431 341.49 84.89C342.95 85.7328 344.665 86.0204 346.32 85.7C347.471 85.4834 348.597 85.1482 349.68 84.7C350.951 84.192 352.254 83.7677 353.58 83.43C354.319 83.2511 355.08 83.1737 355.84 83.2C356.642 83.2424 357.431 83.4252 358.17 83.74C358.935 84.0667 359.618 84.5584 360.17 85.18C360.761 85.857 361.094 86.7213 361.11 87.62L360.71 87.4L361.54 86.92C361.85 86.8 362.14 86.64 362.46 86.53C364.102 85.9677 365.863 85.8501 367.565 86.1891C369.267 86.5281 370.849 87.3116 372.15 88.46C373.275 89.4782 374.098 90.7858 374.53 92.24C374.979 93.7813 375.039 95.4097 374.706 96.98C374.373 98.5504 373.656 100.014 372.62 101.24C372.291 101.616 371.918 101.952 371.51 102.24C371.41 102.357 371.295 102.461 371.17 102.55Z" fill="#455A64"/>
<path d="M369.87 79.94C369.213 79.6067 368.513 79.3677 367.79 79.23C366.963 79.117 366.121 79.1956 365.33 79.46C364.305 79.7736 363.414 80.4213 362.8 81.3L362.55 81.65L362.4 81.25C361.878 80.0207 361.037 78.9529 359.965 78.1566C358.893 77.3604 357.628 76.8644 356.3 76.72C354.215 76.6415 352.16 77.2377 350.44 78.42C348.975 79.375 347.417 80.1791 345.79 80.82C344.668 81.2443 343.46 81.3884 342.27 81.24C341.953 81.1814 341.642 81.0944 341.34 80.98C341.14 80.89 341.03 80.84 341.04 80.82C341.05 80.8 341.49 80.95 342.3 81.03C343.45 81.1018 344.602 80.9139 345.67 80.48C347.251 79.7905 348.767 78.9605 350.2 78C351.085 77.4504 352.023 76.9915 353 76.63C354.074 76.2383 355.222 76.0914 356.36 76.2C357.778 76.3548 359.128 76.8914 360.266 77.7525C361.403 78.6135 362.286 79.767 362.82 81.09H362.43C363.118 80.1502 364.1 79.4674 365.22 79.15C366.071 78.9032 366.968 78.8587 367.84 79.02C368.392 79.1247 368.92 79.328 369.4 79.62C369.571 79.7037 369.729 79.8115 369.87 79.94Z" fill="#455A64"/>
<path d="M356.7 114.48C356.466 114.285 356.194 114.141 355.901 114.058C355.608 113.976 355.301 113.956 355 114C354.648 114.075 354.315 114.224 354.024 114.435C353.733 114.647 353.49 114.918 353.31 115.23C353.31 115.23 353.26 115.28 353.25 115.31C353.112 115.538 353.049 115.804 353.07 116.07C353.114 116.36 353.227 116.634 353.402 116.87C353.576 117.105 353.806 117.294 354.07 117.42C354.493 117.634 354.971 117.713 355.44 117.645C355.909 117.577 356.346 117.366 356.69 117.04C357.017 116.695 357.2 116.238 357.202 115.762C357.204 115.286 357.024 114.828 356.7 114.48Z" fill="#FF725E"/>
<path d="M357.2 117.59C357.12 117.59 357.03 117.29 356.76 116.88C356.435 116.33 355.949 115.894 355.368 115.629C354.786 115.364 354.138 115.284 353.51 115.4C353.02 115.47 352.72 115.61 352.69 115.54C352.66 115.47 352.89 115.23 353.43 115.04C354.137 114.813 354.903 114.855 355.58 115.16C356.263 115.464 356.804 116.019 357.09 116.71C357.3 117.23 357.27 117.58 357.2 117.59Z" fill="#263238"/>
<path d="M336.79 118.83C336.79 118.83 337.08 119.33 336.7 120.09C336.485 120.545 336.107 120.902 335.64 121.09C335.349 121.194 335.037 121.229 334.73 121.193C334.423 121.157 334.129 121.049 333.87 120.88C333.607 120.72 333.384 120.501 333.219 120.241C333.055 119.981 332.952 119.686 332.92 119.38C332.89 118.886 333.035 118.397 333.33 118C333.85 117.34 334.43 117.32 334.43 117.38C334.43 117.44 333.99 117.61 333.64 118.21C333.437 118.546 333.353 118.94 333.4 119.33C333.437 119.558 333.524 119.776 333.653 119.967C333.783 120.159 333.952 120.32 334.15 120.44C334.345 120.565 334.565 120.647 334.794 120.682C335.023 120.716 335.257 120.702 335.48 120.64C335.849 120.508 336.168 120.263 336.39 119.94C336.78 119.32 336.71 118.83 336.79 118.83Z" fill="#FF725E"/>
<path d="M333.42 118.44C333.47 118.44 333.42 118.78 332.95 119C332.719 119.096 332.466 119.124 332.219 119.08C331.973 119.037 331.744 118.924 331.56 118.754C331.376 118.585 331.245 118.367 331.181 118.125C331.117 117.883 331.124 117.628 331.2 117.39C331.298 117.12 331.485 116.89 331.73 116.74C332.14 116.49 332.45 116.59 332.44 116.65C332.43 116.71 332.2 116.78 331.95 117.03C331.827 117.184 331.752 117.37 331.735 117.566C331.717 117.762 331.758 117.959 331.852 118.132C331.946 118.305 332.089 118.447 332.263 118.539C332.437 118.631 332.634 118.67 332.83 118.65C333.17 118.58 333.35 118.4 333.42 118.44Z" fill="#FF725E"/>
<path d="M344.41 207.25C344.41 207.25 369.17 208.69 383.81 208.82C395.14 208.93 400.2 205.92 402.46 198.63C404.36 192.52 400.28 180.79 400.28 180.79C392.61 180.79 387.88 181.89 382.95 184.2L384.26 189.56L344.34 193L344.41 207.25Z" fill="#FFBE9D"/>
<path d="M392.58 195.28C391.506 193.884 390.252 192.636 388.85 191.57C387.346 190.65 385.725 189.937 384.03 189.45C384.564 189.373 385.108 189.421 385.62 189.59C386.878 189.887 388.071 190.413 389.14 191.14C390.211 191.87 391.136 192.792 391.87 193.86C392.43 194.68 392.64 195.25 392.58 195.28Z" fill="#EB996E"/>
<path d="M335.35 184.16C335.35 184.16 327.69 186 322.06 189.76L328.06 206.02C330.06 211.36 336.17 214.02 341.06 211.22C348.59 206.91 351.25 194.35 351.25 194.35L359.52 158.47L345.81 149.88L335.4 184.16" fill="#FFBE9D"/>
<path d="M345.76 149.88L346.32 138.08L343.25 126.08C343.08 125.42 343 124.59 343.54 124.19C343.808 123.985 344.138 123.878 344.476 123.889C344.813 123.9 345.136 124.028 345.39 124.25C346.22 125.11 350.22 135.6 350.22 135.6C350.22 135.6 356.29 131.96 357.37 131.78C358.45 131.6 359.8 134.87 359.89 135.12C359.93 135.853 359.93 136.587 359.89 137.32C359.89 137.32 363.64 137.43 363.98 137.94C364.253 138.982 364.397 140.053 364.41 141.13C364.41 141.13 366 141.64 366.25 142.84C366.5 144.04 367.02 146.02 366.25 146.46C365.48 146.9 363.92 147.76 363.92 147.76C363.92 147.76 363.29 153.88 363.12 154.44C362.95 155 359.44 158.44 359.44 158.44L345.76 149.88Z" fill="#FFBE9D"/>
<path d="M333 211.46C333 211.46 333.37 211.68 334.15 211.93C335.291 212.288 336.497 212.384 337.68 212.21C339.58 211.939 341.36 211.119 342.8 209.85C344.703 208.123 346.311 206.096 347.56 203.85C348.295 202.53 348.914 201.148 349.41 199.72C349.93 198.149 350.361 196.55 350.7 194.93C351.48 191.56 352.33 187.93 353.23 184.07C355.03 176.36 357.05 167.74 359.23 158.45V158.38H359.28C359.97 157.7 360.66 157.01 361.35 156.29C361.69 155.93 362.03 155.57 362.35 155.2C362.51 155.01 362.68 154.82 362.81 154.63C362.911 154.442 362.969 154.233 362.98 154.02C363.25 152.02 363.46 149.95 363.68 147.86V147.73L363.8 147.67L365.71 146.6C365.85 146.51 366.07 146.41 366.16 146.33C366.256 146.243 366.319 146.127 366.34 146C366.387 145.668 366.387 145.332 366.34 145C366.243 144.267 366.093 143.541 365.89 142.83C365.55 142.208 364.979 141.745 364.3 141.54L364.13 141.48V141.31C364.13 140.73 364.07 140.13 364 139.54C363.973 139.244 363.929 138.951 363.87 138.66C363.847 138.532 363.806 138.407 363.75 138.29C363.75 138.22 363.75 138.29 363.69 138.23C363.636 138.201 363.579 138.178 363.52 138.16C362.317 137.898 361.091 137.761 359.86 137.75H359.6V137.49C359.6 136.87 359.6 136.18 359.6 135.49C359.559 135.255 359.478 135.028 359.36 134.82C359.26 134.58 359.14 134.35 359.02 134.11C358.786 133.647 358.512 133.205 358.2 132.79C358.059 132.597 357.886 132.428 357.69 132.29C357.617 132.229 357.528 132.19 357.434 132.18C357.34 132.169 357.244 132.186 357.16 132.23C356.676 132.415 356.205 132.632 355.75 132.88C353.89 133.88 352.07 134.88 350.29 135.96L350.03 136.12L349.92 135.84C348.98 133.47 348.04 131.13 347.12 128.84C346.66 127.69 346.21 126.54 345.75 125.41C345.679 125.157 345.538 124.929 345.344 124.752C345.149 124.575 344.909 124.457 344.65 124.41C344.411 124.331 344.152 124.335 343.916 124.422C343.68 124.509 343.48 124.674 343.35 124.89C343.225 125.105 343.173 125.353 343.2 125.6C343.2 125.82 343.34 126.16 343.4 126.43C343.56 127.01 343.71 127.58 343.86 128.15C344.16 129.3 344.45 130.43 344.75 131.55C345.337 133.803 345.913 136.003 346.48 138.15V138.22C346.28 142.327 346.09 146.26 345.91 150.02V150L336.8 179.64L334.23 187.89C333.93 188.82 333.7 189.55 333.54 190.06C333.38 190.57 333.28 190.79 333.28 190.79C333.28 190.79 333.33 190.53 333.47 190.04L334.1 187.85C334.68 185.92 335.51 183.13 336.56 179.57C338.72 172.41 341.79 162.19 345.5 149.87V149.92C345.673 146.173 345.85 142.24 346.03 138.12V138.19C345.46 136.04 344.87 133.84 344.28 131.6L343.38 128.2C343.23 127.63 343.08 127.05 342.92 126.48C342.834 126.181 342.764 125.877 342.71 125.57C342.673 125.223 342.747 124.873 342.92 124.57C343.105 124.258 343.391 124.018 343.73 123.89C344.066 123.792 344.421 123.781 344.762 123.858C345.103 123.935 345.419 124.097 345.68 124.33C345.931 124.565 346.117 124.862 346.22 125.19L347.59 128.62C348.52 130.92 349.45 133.26 350.4 135.62L350.03 135.49C351.82 134.43 353.62 133.37 355.52 132.38C356 132.129 356.494 131.905 357 131.71C357.158 131.644 357.33 131.62 357.5 131.64C357.671 131.665 357.835 131.726 357.98 131.82C358.221 131.993 358.433 132.202 358.61 132.44C358.944 132.878 359.236 133.346 359.48 133.84C359.61 134.09 359.73 134.33 359.84 134.58C359.982 134.845 360.077 135.132 360.12 135.43C360.12 136.14 360.12 136.8 360.12 137.43L359.87 137.16C361.155 137.169 362.436 137.316 363.69 137.6C363.776 137.63 363.86 137.667 363.94 137.71C364.05 137.77 364.14 137.86 364.2 137.97C364.278 138.132 364.335 138.304 364.37 138.48C364.43 138.8 364.47 139.1 364.51 139.41C364.57 140.02 364.61 140.62 364.64 141.22L364.46 140.98C364.869 141.1 365.249 141.302 365.578 141.574C365.906 141.845 366.176 142.181 366.37 142.56C366.589 143.32 366.75 144.096 366.85 144.88C366.919 145.28 366.919 145.69 366.85 146.09C366.806 146.332 366.679 146.552 366.49 146.71C366.326 146.82 366.156 146.92 365.98 147.01L364.08 148L364.21 147.81C363.98 149.9 363.77 151.95 363.49 153.98L363.43 154.37C363.407 154.528 363.341 154.677 363.24 154.8C363.093 155.019 362.929 155.226 362.75 155.42C362.41 155.8 362.07 156.17 361.75 156.53C361.06 157.25 360.37 157.94 359.67 158.62L359.74 158.5C357.54 167.78 355.5 176.4 353.67 184.11C352.76 187.96 351.89 191.59 351.09 194.95C350.748 196.582 350.307 198.191 349.77 199.77C349.255 201.211 348.62 202.606 347.87 203.94C346.593 206.215 344.947 208.263 343 210C341.517 211.277 339.691 212.091 337.75 212.34C336.542 212.502 335.312 212.379 334.16 211.98C333.867 211.872 333.583 211.742 333.31 211.59L333 211.46Z" fill="#EB996E"/>
<path d="M359.9 137.35C359.9 137.42 359.56 137.46 359.03 137.48C358.357 137.493 357.687 137.573 357.03 137.72C356.396 137.876 355.811 138.189 355.33 138.63C354.97 138.97 354.81 139.26 354.73 139.23C354.65 139.2 354.73 138.84 355.06 138.38C355.526 137.798 356.174 137.389 356.9 137.22C357.6 137.047 358.327 137.013 359.04 137.12C359.58 137.19 359.9 137.28 359.9 137.35Z" fill="#EB996E"/>
<path d="M357 137.46C356.87 137.41 356.86 137.1 357 136.77C357.14 136.44 357.34 136.21 357.47 136.26C357.6 136.31 357.62 136.62 357.47 136.95C357.32 137.28 357.1 137.51 357 137.46Z" fill="#EB996E"/>
<path d="M364.58 141.09C363.609 141.39 362.596 141.529 361.58 141.5C361.26 141.489 360.943 141.555 360.654 141.693C360.365 141.83 360.113 142.035 359.92 142.29C359.66 142.7 359.75 143.04 359.67 143.06C359.59 143.08 359.35 142.73 359.6 142.13C359.738 141.792 359.989 141.513 360.31 141.34C360.68 141.137 361.089 141.014 361.51 140.98C362.531 140.824 363.573 140.861 364.58 141.09Z" fill="#EB996E"/>
<path d="M363.92 144.69C364.06 144.69 364.14 145.43 364.1 146.34C364.06 147.25 363.91 147.97 363.77 147.97C363.63 147.97 363.54 147.22 363.58 146.31C363.62 145.4 363.77 144.68 363.92 144.69Z" fill="#EB996E"/>
<path d="M368.07 171.62L368.96 168.56C369.001 168.42 369.077 168.293 369.182 168.191C369.287 168.09 369.416 168.017 369.557 167.981C369.699 167.945 369.847 167.946 369.988 167.984C370.128 168.023 370.257 168.097 370.36 168.2L371.53 169.39L372.25 166.5C372.292 166.333 372.385 166.183 372.515 166.071C372.646 165.958 372.808 165.888 372.979 165.871C373.15 165.853 373.323 165.889 373.473 165.973C373.624 166.057 373.745 166.185 373.82 166.34L375.45 169.76L368.07 171.62Z" fill="white"/>
<path d="M375.47 171.07C374.351 171.611 373.164 171.994 371.94 172.21C370.757 172.597 369.524 172.812 368.28 172.85C370.582 171.925 373.002 171.326 375.47 171.07Z" fill="white"/>
<path d="M316 154C316 154 315.63 154.38 315.11 155.19C314.412 156.344 313.953 157.626 313.76 158.96C313.475 160.947 313.415 162.96 313.58 164.96C313.69 167.23 313.87 169.71 314.15 172.31C314.624 176.75 315.328 181.163 316.26 185.53C316.61 187.21 316.93 188.53 317.15 189.53C317.25 189.95 317.34 190.3 317.41 190.6C317.48 190.9 317.49 190.98 317.49 190.98C317.49 190.98 317.44 190.86 317.37 190.62C317.3 190.38 317.19 189.96 317.08 189.55C316.83 188.62 316.49 187.28 316.08 185.6C315.108 181.234 314.383 176.817 313.91 172.37C313.63 169.77 313.46 167.28 313.36 165.01C313.208 163.008 313.282 160.995 313.58 159.01C313.795 157.658 314.285 156.365 315.02 155.21C315.291 154.764 315.62 154.357 316 154Z" fill="white"/>
<path d="M337.05 140.38L336.82 140.5L336.16 140.82C335.59 141.09 334.76 141.49 333.77 142.04C331.189 143.479 328.683 145.048 326.26 146.74C323.4 148.74 320.87 150.56 319.02 151.88L316.83 153.43L316.22 153.84C316.152 153.894 316.078 153.941 316 153.98C316.057 153.913 316.125 153.855 316.2 153.81L316.78 153.37L318.93 151.76C320.76 150.41 323.28 148.53 326.14 146.57C328.567 144.871 331.091 143.315 333.7 141.91C334.7 141.38 335.54 141 336.13 140.75L336.8 140.47C337 140.4 337 140.37 337.05 140.38Z" fill="white"/>
<path d="M384.74 146.89C384.677 146.855 384.62 146.811 384.57 146.76L384.12 146.37C383.563 145.9 382.978 145.462 382.37 145.06C380.34 143.766 378.186 142.677 375.94 141.81C373.701 140.923 371.414 140.162 369.09 139.53C368.19 139.28 367.47 139.1 366.96 138.98L366.39 138.83C366.321 138.816 366.253 138.792 366.19 138.76H366.4L366.98 138.87C367.49 138.97 368.22 139.13 369.12 139.36C371.466 139.952 373.771 140.697 376.02 141.59C378.279 142.457 380.435 143.57 382.45 144.91C383.289 145.478 384.057 146.142 384.74 146.89Z" fill="white"/>
<path d="M337.33 223.22C337.194 223.196 337.063 223.152 336.94 223.09C336.593 222.937 336.258 222.757 335.94 222.55C335.401 222.227 334.932 221.801 334.557 221.297C334.183 220.792 333.912 220.219 333.76 219.61C333.485 218.38 333.622 217.094 334.15 215.95C334.302 215.595 334.497 215.259 334.73 214.95C334.89 214.74 335 214.64 335.01 214.65C334.737 215.076 334.493 215.521 334.28 215.98C333.815 217.104 333.707 218.343 333.97 219.53C334.256 220.702 334.97 221.725 335.97 222.4C336.8 223 337.35 223.18 337.33 223.22Z" fill="white"/>
<path d="M334.15 212.39C334.363 212.787 334.521 213.211 334.62 213.65C334.776 214.071 334.871 214.512 334.9 214.96C334.673 214.572 334.511 214.15 334.42 213.71C334.256 213.288 334.165 212.842 334.15 212.39Z" fill="white"/>
<path d="M347.67 436.6L378.17 436.45L377.62 331L377.33 223.73L336 223.2L328.57 237.2C325.53 242.828 323.592 248.985 322.86 255.34C322.36 260.2 326 276 327.26 280L338.63 316.06L347.67 436.6Z" fill="#263238"/>
<path d="M386.28 223.86L419.8 315.23C421.786 321.117 422.446 327.37 421.732 333.542C421.018 339.714 418.948 345.652 415.67 350.93L376.75 426.93L354.87 399.55L387.43 331.55L358.73 285L363.56 224L377.08 223.78L386.28 223.86Z" fill="#263238"/>
<path d="M374.55 254.47C374.55 254.47 374.55 254.63 374.55 254.94C374.55 255.25 374.6 255.73 374.64 256.32C374.71 257.55 374.8 259.32 374.92 261.61C375.15 266.24 375.47 272.89 375.92 281.1C376.37 289.31 376.75 299.1 377.25 310C377.49 315.44 377.75 321.15 378.01 327.07C378.2 330.07 378.12 333.07 378.15 336.07C378.18 339.07 378.15 342.23 378.15 345.37C378.15 370.5 378.23 393.25 378.26 409.74C378.26 417.96 378.26 424.62 378.26 429.25C378.26 431.54 378.26 433.32 378.26 434.56C378.26 435.14 378.26 435.56 378.26 435.94C378.26 436.32 378.26 436.41 378.26 436.41C378.26 436.41 378.26 436.25 378.26 435.94V434.56C378.26 433.32 378.26 431.56 378.2 429.25C378.2 424.62 378.12 417.97 378.06 409.75C377.99 393.26 377.9 370.51 377.8 345.38C377.8 342.24 377.8 339.14 377.8 336.08C377.8 333.02 377.86 330 377.67 327.08C377.42 321.17 377.17 315.46 376.94 310.02C376.48 299.14 376.06 289.35 375.72 281.11C375.38 272.87 375.13 266.25 374.94 261.62C374.86 259.34 374.8 257.56 374.76 256.32C374.76 255.73 374.76 255.32 374.76 254.94C374.76 254.56 374.55 254.47 374.55 254.47Z" fill="#455A64"/>
<path d="M373.78 225.66C373.897 225.982 373.968 226.318 373.99 226.66C374.1 227.3 374.22 228.23 374.36 229.39C374.62 231.7 374.9 234.91 375.06 238.46C375.22 242.01 375.23 245.23 375.18 247.56C375.18 248.72 375.11 249.67 375.06 250.32C375.07 250.657 375.03 250.995 374.94 251.32C374.814 250.071 374.771 248.815 374.81 247.56C374.81 245.23 374.7 242.03 374.54 238.48C374.38 234.93 374.16 231.74 373.99 229.48C373.848 228.212 373.778 226.936 373.78 225.66Z" fill="#455A64"/>
<path d="M367.06 227.72C367.11 227.79 366.54 228.05 366.38 228.86C366.335 229.08 366.347 229.307 366.416 229.521C366.484 229.735 366.606 229.927 366.77 230.08C366.968 230.264 367.214 230.387 367.48 230.435C367.746 230.483 368.02 230.453 368.27 230.35C368.51 230.227 368.71 230.038 368.848 229.807C368.985 229.575 369.056 229.309 369.05 229.04C369.041 228.816 368.974 228.598 368.857 228.408C368.74 228.217 368.576 228.059 368.38 227.95C367.973 227.753 367.52 227.673 367.07 227.72C367.07 227.72 367.17 227.59 367.43 227.51C367.805 227.418 368.2 227.457 368.55 227.62C368.829 227.736 369.071 227.928 369.247 228.173C369.424 228.419 369.529 228.708 369.55 229.01C369.59 229.382 369.512 229.758 369.327 230.083C369.142 230.409 368.86 230.668 368.519 230.825C368.179 230.982 367.799 231.028 367.431 230.957C367.064 230.886 366.727 230.702 366.47 230.43C366.257 230.219 366.107 229.953 366.034 229.662C365.962 229.371 365.971 229.066 366.06 228.78C366.16 228.406 366.386 228.077 366.7 227.85C366.9 227.71 367.05 227.69 367.06 227.72Z" fill="#455A64"/>
<path d="M351.06 225.91C351.207 226.225 351.299 226.564 351.33 226.91C351.491 227.808 351.521 228.724 351.42 229.63C351.276 230.979 350.886 232.291 350.27 233.5C349.525 235.004 348.423 236.302 347.059 237.28C345.696 238.258 344.113 238.886 342.45 239.11C341.119 239.309 339.762 239.258 338.45 238.96C337.562 238.767 336.707 238.447 335.91 238.01C335.609 237.868 335.332 237.679 335.09 237.45C336.195 237.947 337.348 238.333 338.53 238.6C339.952 238.896 341.42 238.893 342.842 238.593C344.263 238.293 345.607 237.701 346.788 236.855C347.969 236.01 348.962 234.928 349.704 233.68C350.446 232.431 350.922 231.042 351.1 229.6C351.218 228.372 351.204 227.135 351.06 225.91Z" fill="#455A64"/>
<path d="M390.3 234.67C389.648 234.745 388.987 234.667 388.37 234.44C386.859 233.964 385.503 233.094 384.44 231.92C383.368 230.751 382.632 229.313 382.31 227.76C382.152 227.126 382.152 226.464 382.31 225.83C382.4 225.83 382.41 226.56 382.71 227.68C383.115 229.127 383.852 230.46 384.863 231.573C385.873 232.685 387.129 233.547 388.53 234.09C389.57 234.5 390.31 234.57 390.3 234.67Z" fill="#455A64"/>
<path d="M402.21 333.17C401.709 333.742 401.109 334.219 400.44 334.58C399.738 335.025 398.973 335.363 398.17 335.58C397.16 335.848 396.095 335.82 395.1 335.5C393.353 334.841 391.857 333.652 390.82 332.1C390.344 331.517 389.95 330.871 389.65 330.18C390.19 330.695 390.679 331.261 391.11 331.87C392.172 333.278 393.606 334.362 395.25 335C396.089 335.224 396.965 335.275 397.825 335.149C398.685 335.024 399.51 334.725 400.25 334.27C400.882 333.866 401.536 333.499 402.21 333.17Z" fill="#455A64"/>
<path d="M394.57 339C393.388 337.776 392.333 336.436 391.42 335C390.369 333.663 389.451 332.226 388.68 330.71C389.87 331.93 390.929 333.27 391.84 334.71C392.9 336.039 393.815 337.477 394.57 339Z" fill="#455A64"/>
<path d="M343.33 258C343.19 258.05 342.84 257.48 342.53 256.71C342.22 255.94 342.09 255.29 342.22 255.23C342.35 255.17 342.71 255.75 343.01 256.52C343.31 257.29 343.46 258 343.33 258Z" fill="#FAFAFA"/>
<path d="M362.69 260.78C362.54 260.78 362.43 260.29 362.43 259.68C362.43 259.07 362.54 258.57 362.69 258.57C362.84 258.57 362.95 259.07 362.95 259.68C362.95 260.29 362.83 260.78 362.69 260.78Z" fill="#FAFAFA"/>
<path d="M354.73 271.3C354.59 271.3 354.43 270.7 354.38 269.93C354.33 269.16 354.38 268.54 354.54 268.53C354.7 268.52 354.85 269.13 354.9 269.9C354.95 270.67 354.87 271.29 354.73 271.3Z" fill="#FAFAFA"/>
<path d="M340.19 279C340.07 279.09 339.66 278.72 339.12 278.34C338.58 277.96 338.12 277.67 338.12 277.53C338.12 277.39 338.78 277.47 339.39 277.91C340 278.35 340.31 279 340.19 279Z" fill="#FAFAFA"/>
<path d="M365.82 288.81C365.7 288.73 365.82 288.3 366.16 287.81C366.5 287.32 366.81 287.04 366.93 287.12C367.05 287.2 366.93 287.64 366.59 288.12C366.25 288.6 365.94 288.89 365.82 288.81Z" fill="#FAFAFA"/>
<path d="M350 291.58C349.86 291.58 349.74 290.75 349.74 289.74C349.74 288.73 349.86 287.89 350 287.89C350.14 287.89 350.26 288.72 350.26 289.74C350.26 290.76 350.11 291.58 350 291.58Z" fill="#FAFAFA"/>
<path d="M344.82 302.8C344.74 302.91 344.22 302.68 343.66 302.27C343.1 301.86 342.66 301.44 342.79 301.32C342.92 301.2 343.4 301.44 343.96 301.85C344.52 302.26 344.91 302.68 344.82 302.8Z" fill="#FAFAFA"/>
<path d="M360.84 306.7C360.9 306.83 360.58 307.1 360.12 307.31C359.66 307.52 359.24 307.57 359.18 307.44C359.12 307.31 359.45 307.04 359.91 306.83C360.37 306.62 360.79 306.57 360.84 306.7Z" fill="#FAFAFA"/>
<path d="M350 325C349.88 325.06 349.36 324.29 348.85 323.27C348.34 322.25 348.03 321.37 348.16 321.27C348.29 321.17 348.81 321.98 349.31 323C349.81 324.02 350.09 324.89 350 325Z" fill="#FAFAFA"/>
<path d="M367.67 323.3C367.54 323.23 367.77 322.56 368.17 321.79C368.57 321.02 369.02 320.46 369.17 320.53C369.32 320.6 369.07 321.27 368.66 322.04C368.25 322.81 367.79 323.37 367.67 323.3Z" fill="#FAFAFA"/>
<path d="M359.92 338.79C359.77 338.79 359.79 337.98 359.63 337.04C359.47 336.1 359.23 335.35 359.37 335.28C359.51 335.21 359.99 335.92 360.15 336.96C360.31 338 360.06 338.82 359.92 338.79Z" fill="#FAFAFA"/>
<path d="M351.62 347.64C351.52 347.74 351.02 347.36 350.51 346.8C350 346.24 349.67 345.71 349.78 345.61C349.89 345.51 350.38 345.89 350.89 346.45C351.4 347.01 351.73 347.54 351.62 347.64Z" fill="#FAFAFA"/>
<path d="M371.76 351C371.66 350.9 372.03 350.36 372.59 349.79C373.15 349.22 373.67 348.85 373.78 348.95C373.89 349.05 373.51 349.6 372.96 350.16C372.41 350.72 371.87 351.1 371.76 351Z" fill="#FAFAFA"/>
<path d="M360.18 364.25C360.04 364.25 360.04 363.46 360.18 362.54C360.32 361.62 360.54 360.9 360.69 360.92C360.84 360.94 360.83 361.7 360.69 362.62C360.55 363.54 360.32 364.27 360.18 364.25Z" fill="#FAFAFA"/>
<path d="M352.39 370.68C352.26 370.75 351.82 370.23 351.39 369.52C350.96 368.81 350.74 368.18 350.86 368.11C350.98 368.04 351.42 368.55 351.86 369.26C352.3 369.97 352.51 370.6 352.39 370.68Z" fill="#FAFAFA"/>
<path d="M371.16 378.79C371.25 378.91 370.74 379.42 370.02 379.93C369.3 380.44 368.67 380.76 368.58 380.64C368.49 380.52 369.01 380.01 369.72 379.5C370.43 378.99 371.08 378.68 371.16 378.79Z" fill="#FAFAFA"/>
<path d="M355.52 389.32C355.38 389.27 355.52 388.47 355.65 387.47C355.78 386.47 355.7 385.65 355.85 385.63C356 385.61 356.26 386.45 356.16 387.52C356.06 388.59 355.65 389.38 355.52 389.32Z" fill="#FAFAFA"/>
<path d="M361.77 404.44C361.65 404.53 361.23 404.19 360.82 403.68C360.41 403.17 360.18 402.68 360.29 402.59C360.4 402.5 360.82 402.84 361.23 403.35C361.64 403.86 361.88 404.35 361.77 404.44Z" fill="#FAFAFA"/>
<path d="M354.94 414.58C354.82 414.66 354.27 414.07 353.71 413.25C353.15 412.43 352.8 411.71 352.91 411.63C353.02 411.55 353.58 412.14 354.14 412.96C354.7 413.78 355.06 414.5 354.94 414.58Z" fill="#FAFAFA"/>
<path d="M373.75 401.85C373.62 401.8 373.63 401.43 373.75 401.03C373.87 400.63 374.14 400.33 374.28 400.38C374.42 400.43 374.4 400.8 374.28 401.21C374.16 401.62 373.89 401.91 373.75 401.85Z" fill="#FAFAFA"/>
<path d="M365.45 426C365.32 425.93 365.57 425.22 365.77 424.33C365.97 423.44 366.04 422.69 366.19 422.68C366.34 422.67 366.49 423.48 366.28 424.44C366.07 425.4 365.57 426.08 365.45 426Z" fill="#FAFAFA"/>
<path d="M370.85 271.46C370.72 271.52 370.4 271.12 370.14 270.56C369.88 270 369.77 269.5 369.9 269.44C370.03 269.38 370.35 269.78 370.61 270.34C370.87 270.9 371 271.4 370.85 271.46Z" fill="#FAFAFA"/>
<path d="M357 240.32C357.08 240.44 356.38 241 355.63 241.8C354.88 242.6 354.37 243.34 354.24 243.27C354.11 243.2 354.45 242.27 355.24 241.45C356.03 240.63 356.9 240.19 357 240.32Z" fill="#FAFAFA"/>
<path d="M369.33 240C369.18 240 368.95 239.43 368.6 238.75C368.25 238.07 367.93 237.51 368.04 237.41C368.15 237.31 368.69 237.75 369.04 238.51C369.39 239.27 369.46 239.92 369.33 240Z" fill="#FAFAFA"/>
<path d="M330.83 250.11C330.7 250.05 330.83 249.39 331.14 248.63C331.45 247.87 331.79 247.28 331.93 247.34C332.07 247.4 331.93 248.05 331.62 248.82C331.31 249.59 331 250.16 330.83 250.11Z" fill="#FAFAFA"/>
<path d="M332.08 265.21C331.98 265.32 331.41 265 330.8 264.49C330.19 263.98 329.8 263.49 329.86 263.37C329.92 263.25 330.53 263.58 331.14 264.09C331.75 264.6 332.17 265.1 332.08 265.21Z" fill="#FAFAFA"/>
<path d="M357.34 228.33C357.21 228.33 356.93 228.01 356.73 227.5C356.53 226.99 356.47 226.5 356.6 226.5C356.73 226.5 357.01 226.82 357.21 227.33C357.41 227.84 357.47 228.28 357.34 228.33Z" fill="#FAFAFA"/>
<path d="M381.53 235.71C381.39 235.71 381.4 235.08 381.53 234.37C381.66 233.66 381.92 233.1 382.06 233.13C382.2 233.16 382.19 233.77 382.06 234.48C381.93 235.19 381.67 235.74 381.53 235.71Z" fill="#FAFAFA"/>
<path d="M387.21 247.14C387.08 247.08 387.26 246.34 387.62 245.47C387.98 244.6 388.37 243.95 388.5 244C388.63 244.05 388.5 244.8 388.1 245.67C387.7 246.54 387.35 247.19 387.21 247.14Z" fill="#FAFAFA"/>
<path d="M383.16 256.36C383.03 256.42 382.55 255.73 382.09 254.82C381.63 253.91 381.37 253.1 381.5 253.04C381.63 252.98 382.1 253.67 382.56 254.58C383.02 255.49 383.29 256.29 383.16 256.36Z" fill="#FAFAFA"/>
<path d="M391.82 265.58C391.69 265.53 391.82 264.95 392.04 264.29C392.26 263.63 392.61 263.13 392.75 263.18C392.89 263.23 392.75 263.81 392.53 264.47C392.31 265.13 392 265.63 391.82 265.58Z" fill="#FAFAFA"/>
<path d="M384.08 274.61C383.96 274.69 383.65 274.42 383.4 274.02C383.15 273.62 383.03 273.22 383.16 273.14C383.29 273.06 383.58 273.33 383.84 273.74C384.1 274.15 384.2 274.54 384.08 274.61Z" fill="#FAFAFA"/>
<path d="M385.73 293.25C385.63 293.34 385 292.85 384.34 292.13C383.68 291.41 383.23 290.76 383.34 290.66C383.45 290.56 384.07 291.06 384.73 291.78C385.39 292.5 385.84 293.15 385.73 293.25Z" fill="#FAFAFA"/>
<path d="M395.88 282.54C395.77 282.63 395.22 282.13 394.66 281.41C394.1 280.69 393.74 280.05 393.85 279.96C393.96 279.87 394.51 280.38 395.07 281.09C395.63 281.8 396 282.46 395.88 282.54Z" fill="#FAFAFA"/>
<path d="M401.45 297.31C401.32 297.25 401.55 296.5 401.96 295.64C402.37 294.78 402.8 294.12 402.96 294.18C403.12 294.24 402.87 295 402.46 295.86C402.05 296.72 401.58 297.38 401.45 297.31Z" fill="#FAFAFA"/>
<path d="M389.61 309.47C389.48 309.54 389.02 308.99 388.38 308.4C387.74 307.81 387.15 307.4 387.21 307.25C387.27 307.1 388.03 307.37 388.73 308.02C389.43 308.67 389.73 309.4 389.61 309.47Z" fill="#FAFAFA"/>
<path d="M390.35 322C390.35 322.14 389.85 322.26 389.24 322.26C388.63 322.26 388.14 322.14 388.14 322C388.14 321.86 388.63 321.74 389.24 321.74C389.85 321.74 390.35 321.86 390.35 322Z" fill="#FAFAFA"/>
<path d="M402.52 318.5C402.39 318.43 402.65 317.8 402.84 317.02C403.03 316.24 403.11 315.56 403.26 315.55C403.41 315.54 403.57 316.27 403.35 317.14C403.13 318.01 402.63 318.58 402.52 318.5Z" fill="#FAFAFA"/>
<path d="M414.61 322.71C414.48 322.76 414.11 322.05 413.79 321.14C413.47 320.23 413.32 319.45 413.45 319.41C413.58 319.37 413.96 320.06 414.28 320.97C414.6 321.88 414.75 322.66 414.61 322.71Z" fill="#FAFAFA"/>
<path d="M412.68 339.91C412.56 339.84 412.87 339 413.37 338.03C413.87 337.06 414.37 336.33 414.52 336.4C414.67 336.47 414.34 337.31 413.83 338.27C413.32 339.23 412.81 340 412.68 339.91Z" fill="#FAFAFA"/>
<path d="M401.65 350C401.52 350.05 401.11 349.36 400.73 348.45C400.35 347.54 400.16 346.76 400.3 346.7C400.44 346.64 400.84 347.34 401.21 348.25C401.58 349.16 401.78 350 401.65 350Z" fill="#FAFAFA"/>
<path d="M389.43 353.91C389.43 354.05 389.01 354.17 388.5 354.17C387.99 354.17 387.58 354.05 387.58 353.91C387.58 353.77 388 353.65 388.5 353.65C389 353.65 389.43 353.77 389.43 353.91Z" fill="#FAFAFA"/>
<path d="M396.43 370C396.3 370 396.02 369.45 395.81 368.69C395.6 367.93 395.56 367.27 395.7 367.24C395.84 367.21 396.11 367.79 396.32 368.55C396.53 369.31 396.57 369.92 396.43 370Z" fill="#FAFAFA"/>
<path d="M387.58 364.6C387.46 364.53 387.58 364.06 387.91 363.55C388.24 363.04 388.57 362.69 388.69 362.76C388.81 362.83 388.69 363.31 388.36 363.82C388.03 364.33 387.71 364.68 387.58 364.6Z" fill="#FAFAFA"/>
<path d="M387.4 382.31C387.26 382.31 387.06 381.64 386.96 380.77C386.86 379.9 386.89 379.19 387.03 379.17C387.17 379.15 387.37 379.84 387.47 380.71C387.57 381.58 387.54 382.29 387.4 382.31Z" fill="#FAFAFA"/>
</svg>
